<?xml version="1.0" encoding="UTF-8"?>
<!DOCTYPE svg PUBLIC "-//W3C//DTD SVG 1.1//EN" "http://www.w3.org/Graphics/SVG/1.1/DTD/svg11.dtd">
<!-- Creator: CorelDRAW 2018 (64 Bit Versão de avaliação) -->
<svg xmlns="http://www.w3.org/2000/svg" xml:space="preserve" width="83.8805mm" height="25.7342mm" version="1.1" style="shape-rendering:geometricPrecision; text-rendering:geometricPrecision; image-rendering:optimizeQuality; fill-rule:evenodd; clip-rule:evenodd"
viewBox="0 0 3065.82 940.58"
 xmlns:xlink="http://www.w3.org/1999/xlink">
 <defs>
  <style type="text/css">
   <![CDATA[
    .fil1 {fill:black}
    .fil0 {fill:black;fill-rule:nonzero}
   ]]>
  </style>
 </defs>
 <g id="Camada_x0020_1">
  <metadata id="CorelCorpID_0Corel-Layer"/>
  <path class="fil0" d="M1252.37 52.7l-8.68 53.94 -170.49 9.3 25.42 241.16 147.55 -2.48 0 50.21 -204.58 30.38 -45.26 -407.31 256.04 24.8zm297.58 334.77l1.86 0.62 -3.1 39.06 -36.58 -1.24 -214.5 5.58 -2.48 -169.25 156.23 10.54 0 -51.46 -107.25 4.34 -3.1 -42.16 155.61 -29.14 24.8 221.95 28.52 11.16zm-98.58 -68.19l-104.77 0 8.68 66.96 91.75 3.1 4.34 -70.05zm357.1 -120.89l151.89 -14.88 -18.6 252.32 -52.08 -1.86 1.24 -189.08 -88.03 20.46 -11.16 170.49 -46.5 -1.86 -1.86 -189.08 -89.89 23.56 6.2 163.05 -42.78 4.34 -42.77 -264.1 70.05 -9.92 2.49 32.24 161.18 -21.08 0.62 25.42zm275.88 -11.16l-4.34 254.18 -62.62 -2.48 27.28 -252.33 39.67 0.62zm8.68 -32.24l-50.83 0 -3.1 -59.52 58.9 3.72 -4.96 55.8zm110.97 286.42l-42.78 -273.4 71.3 -9.3 3.72 34.72 188.47 -16.12 -17.36 264.1 -47.74 -1.86 -1.86 -197.15 -115.93 17.36 6.2 177.31 -44.02 4.34zm306.88 1.86l-38.44 -440.17 52.08 -3.1 28.52 207.06 186.61 -22.32 -17.98 252.95 -50.21 -1.86 -1.86 -176.69 -109.73 20.46 7.44 159.33 -56.42 4.33zm523.24 -262.24l-24.8 259.76 -192.81 -6.82 0 -0.62 -26.66 -252.32 244.26 0zm-53.32 62.61l-136.39 -9.3 23.56 149.41 91.13 11.78 21.7 -151.89z"/>
  <path class="fil0" d="M1244.31 602.82l6.28 -174.41 46.74 0 8.37 447.18 -233.01 13.95 -44.65 -284.64 216.27 -2.09zm-6.28 67.67l-131.16 0 12.55 156.97 120.69 -13.25 -2.09 -143.71zm137.43 224.64l-28.6 -293.7 267.19 -8.37 -2.09 189.76 -179.99 -4.18 -0.7 59.3 141.62 4.88 3.49 33.49 -200.91 18.83zm60.69 -165.34l112.32 -4.89 -11.86 -74.65 -96.97 -2.79 -3.49 82.32zm663.45 142.31l-220.45 33.49 -39.77 -317.42 254.64 19.54 -2.09 48.83 -179.99 3.49 25.12 175.8 158.36 -9.77 4.18 46.04zm311.84 -36.97l2.09 0.7 -3.49 43.95 -41.16 -1.39 -241.38 6.28 -2.79 -190.45 175.8 11.86 0 -57.9 -120.69 4.88 -3.49 -47.44 175.11 -32.79 27.9 249.75 32.09 12.56zm-110.93 -76.74l-117.9 0 9.77 75.34 103.25 3.49 4.88 -78.83zm219.76 -35.58l179.99 -22.32 16.74 176.5 -244.87 16.05 -2.09 -46.74 172.31 -28.6 -1.39 -43.95 -177.2 14.65 -17.44 -186.27 206.5 -6.28 0 46.05 -147.9 22.32 15.35 58.6zm543.45 112.32l2.09 0.7 -3.49 43.95 -41.16 -1.39 -241.38 6.28 -2.79 -190.45 175.8 11.86 0 -57.9 -120.69 4.88 -3.49 -47.44 175.11 -32.79 27.9 249.75 32.09 12.56zm-110.92 -76.74l-117.9 0 9.77 75.34 103.25 3.49 4.88 -78.83z"/>
  <g id="_1501696081216">
   <path class="fil1" d="M-0 144.69l0 740.29c0,2.01 1.75,2.9 2.94,3.79l35.29 27.81c0.71,0.57 1.13,0.91 1.86,1.5 0.83,0.68 1.34,0.89 2.23,1.56l25.28 20.15c1.32,0.99 0.84,0.74 3.05,0.74 4.69,0 9.69,0.12 14.35,-0.01l13.45 -0.43c2.38,0 4.8,0.05 7.17,0.02 2.51,-0.03 3.76,-0.46 6.71,-0.44 9.77,0.05 18.07,-0.44 27.77,-0.42 8.67,0.02 18.69,-0.86 27.35,-0.84 2.24,0 4.49,-0.01 6.73,0 2.88,0.01 4.47,-0.3 6.73,-0.42 4.43,-0.24 9.51,0.34 13.86,-0.02l40.83 -1.24c2.38,0 4.77,-0.01 7.15,0 2.95,0.01 4.2,-0.41 6.71,-0.44 9.71,-0.12 18.18,-0.41 27.79,-0.41 5.04,0 8.78,-0.43 13.46,-0.42 4.59,0.01 9.7,0.42 14.06,-0.24 3.83,-0.58 9.63,-0.2 13.71,-0.18 2.95,0.01 4.2,-0.41 6.71,-0.44l27.79 -0.4c2.95,0.01 4.2,-0.41 6.71,-0.44 9.71,-0.12 18.12,-0.38 27.8,-0.39 2.66,-0 3.5,-0.46 6.29,-0.45l27.37 -0.4c2.87,0.01 3.84,-0.45 6.71,-0.44 4.15,0.01 10.28,0.42 14.14,-0.17l55.31 -1.07c2.66,-0 3.5,-0.46 6.29,-0.45 2.39,0.01 4.77,0.01 7.16,0.01l20.63 -0.41c2.87,0.01 3.84,-0.45 6.71,-0.44 4.56,0.02 10.16,0.23 14.01,-0.3 3.72,-0.51 9.77,-0.05 13.79,-0.1 2.51,-0.03 3.76,-0.46 6.71,-0.44 20.73,0.11 41.62,-1.28 62.27,-1.26l20.62 -0.42c2.92,0.01 4.37,-0.37 6.72,-0.43 4.58,-0.14 9.33,0.16 13.91,0.03l54.7 -1.67c4.49,-0.37 9.76,0.33 14.26,-0.04 8.73,-0.72 18.27,-0.63 27.4,-0.79 3.45,-0.06 6.2,-3.23 8.75,-5.14 3.19,-2.39 22.36,-16.52 22.36,-20.13l0 -2.1c-60.56,0 -120.35,1.68 -180.91,1.68 -7.51,0 -14.39,0.42 -22.3,0.42 -6.89,0 -16.09,-0.53 -22.7,0.02 -14.05,1.16 -31.11,-0.81 -45.1,0.76 -7.54,0.85 -24.85,0.08 -34.02,0.06 -4.12,-0.01 -6.69,0.42 -10.94,0.42l-56.8 0.42c-4.01,-0.01 -6.68,0.42 -10.94,0.42 -6.45,0 -16.66,-0.61 -22.66,0.06 -6.62,0.74 -15.04,0.36 -22.36,0.36 -18.59,-0 -37.66,0.93 -56.38,0.84 -3.86,-0.02 -6.71,0.42 -10.94,0.42 -3.78,0 -7.57,0 -11.36,0 -4.17,0 -7.25,0.45 -10.94,0.42 -7.56,-0.04 -15.86,-0.18 -22.74,0.39 -6.8,0.56 -15.65,-0.08 -22.72,0 -2.34,0.03 -2.68,0.43 -5.01,0.46l-17.27 -0.03c-3.68,-0.02 -6.76,0.43 -10.93,0.43 -3.73,0 -7.67,-0.12 -11.37,-0.01 -2.15,0.07 -2.59,0.45 -5.02,0.45l-11.81 -0.03c-2.53,0 -3.05,0.42 -5.44,0.45 -7.88,0.1 -14.7,0.41 -22.32,0.4l-16.42 0.41c-2.19,0.07 -2.87,0.45 -5.45,0.44 -1.82,-0.01 -3.68,-0.05 -5.49,-0.03 -2.39,0.03 -2.91,0.45 -5.44,0.45 -7.81,0.01 -25.82,0.55 -32.41,2.09 -1.74,-2.59 -8.45,-9.16 -11.04,-12.09l-9.47 -10.72c-2.61,-2.96 -5.45,-5.45 -7.85,-8.56l-9.59 -10.6c-3.91,-3.93 -3.27,-2.9 -3.27,-10.19 0,-4.49 0,-8.97 0,-13.46 0,-4.68 0.42,-7.84 0.42,-12.62l0 -40.38c0,-9.18 0.42,-17.26 0.42,-26.08 0,-42.32 0.65,-84.36 0.41,-126.61 -0.01,-2.83 0.41,-3.82 0.44,-6.29 0.22,-17.74 -0.01,-35.67 -0.01,-53.44 0,-9.34 0.42,-17.45 0.42,-26.5l0.42 -106.41c0,-9.14 0.42,-17.14 0.42,-26.5l0 -39.96c-0,-4.69 0.42,-8.11 0.42,-13.04 0,-8.89 -0.64,-47.85 0.18,-53.24 0.89,-5.86 0.24,-44.05 0.24,-53.18 0,-8.71 0.42,-16.94 0.42,-26.08 0,-6.46 0.67,-13.14 0.86,-19.33 0.07,-2.2 -0.13,-4.57 -0.01,-6.75l0.54 -12.5c0.82,-5.95 -1.61,-11.7 2.21,-14.61l19.87 -17.15c0.84,-0.75 1.04,-0.74 1.88,-1.48l12.63 -10.93c0.84,-0.74 1.06,-0.81 1.87,-1.49l3.59 -3.14c1.04,-1.01 0.56,-0.97 2.01,-1.36l0 9.67c8.18,0 15.5,-1.66 23.51,-3l20.37 -3.61c7.22,-1.1 13.44,-2.23 20.39,-3.59 13.47,-2.64 27.62,-4.67 41.02,-7.36 6.8,-1.37 13.34,-2.4 20.33,-3.65 3.5,-0.63 6.46,-1.37 9.85,-1.93 3.56,-0.58 6.76,-1.17 10.41,-1.79l20.62 -3.78c6.53,-1.13 13.19,-2.63 20.19,-3.79 6.65,-1.11 13.3,-2.65 20.19,-3.79 13.46,-2.22 27.17,-5.1 40.75,-7.63 7.05,-1.31 13.44,-2.35 20.27,-3.71 6.46,-1.29 13.59,-2.37 20.27,-3.71l60.98 -11.38c20.11,-3.38 40.48,-7.89 60.82,-11.55l40.39 -7.58c23.62,-4.77 47.16,-8.55 70.82,-13.32l51.02 -9.57c2.6,-0.43 38.94,-7.87 40.38,-7.17 2.54,1.23 23.17,17.55 28.2,20.21 0,2.55 0.41,3.06 0.43,5.45l0.41 30.3c0,4.21 0.02,8.42 -0.01,12.62l0.43 11.77c0,4.21 0,8.41 0,12.62 -0.01,4.4 0.42,7.26 0.42,11.78 0,4.21 0,8.41 0,12.62 0,4.46 0.44,7.75 0.42,11.77l0.42 48.79c0,4.63 0.42,7.62 0.42,12.2l-0.01 18.52c0.07,2.24 0.45,3.17 0.44,5.87l-0.01 18.1c-0.01,2.7 0.37,3.63 0.44,5.87 0.25,8.22 -0.25,16.76 0.39,24.43 0.65,7.82 -0.46,16.96 0.38,24.43 0.89,7.95 -0.63,17.17 0.37,24.45 0.97,7.07 -0.77,17.09 0.29,24.1 1.19,7.85 -0.4,16.48 0.27,24.55 0.61,7.4 0.42,16.35 0.39,24.43l0.43 11.77c0,4.21 0,8.41 0,12.62l-21.03 1.26c-3.96,0.21 -7.08,0.36 -10.96,0.4 -2.34,0.02 -2.67,0.43 -5.01,0.45l-16 0.83c-1.77,0.1 -3.7,-0.07 -5.49,-0.01 -2.2,0.07 -2.87,0.46 -5.45,0.44 -3.96,-0.03 -6.86,0.28 -10.96,0.4 -2.16,0.06 -2.58,0.45 -5.02,0.45l-48.4 2.51c-2.4,-0.02 -3.26,0.25 -5.07,0.4 -1.86,0.15 -3.99,-0.05 -5.88,0.01l-37.42 2.13c-2.27,-0 -3.52,0.07 -5.18,0.29l-15.9 0.94c-1.89,0.16 -3.92,-0.13 -5.8,0.08l-16.06 0.76c-2.43,0 -2.87,0.38 -5.02,0.45 -4.05,0.12 -7.17,0.44 -10.96,0.4 -2.41,-0.02 -3.26,0.26 -5.07,0.4 -1.9,0.16 -3.84,-0.12 -5.75,0.14 -1.63,0.22 -2.92,0.31 -5.17,0.3l-16 0.83c-2.34,0.02 -2.67,0.43 -5.01,0.45 -10.17,0.1 -22.12,1.11 -32.41,1.67 -1.89,0.1 -4,-0.13 -5.87,0.02 -3,0.25 -7.56,0.55 -10.56,0.8l-10.92 0.43c-2.46,-0.02 -3.08,0.33 -5.04,0.43 -2.01,0.11 -3.71,-0.13 -5.71,0.18l-10.26 0.68c-4.11,0.04 -6.75,0.34 -10.97,0.39 -2.34,0.03 -2.68,0.43 -5.01,0.45l-16.45 0.8c-1.74,0.14 -3.7,-0.08 -5.45,0.02 -1.96,0.11 -2.59,0.45 -5.04,0.43l-42.81 2.21c-5.62,0.77 -28.06,1.49 -32.53,1.55l-42.92 2.52c-1.79,0.15 -3.6,-0.12 -5.39,0.08l-32.05 1.6c-3.63,0 -11.22,0.85 -16.41,0.84l-32.32 1.76c-2.8,0.31 -7.31,0.52 -10.18,0.76l-21.87 0.86c-2.44,-0.01 -3.08,0.33 -5.04,0.43 -2.96,0.16 -7.72,-1.18 -9.06,2.32 -1.05,2.72 3.89,29.88 4.01,35.53 2.3,0 2.92,-0.26 4.65,-0.4l24.8 -1.28c9.66,-0.51 19.84,-1.42 29.46,-1.67l78.67 -4.63c2.71,-0.15 7.01,-0.6 9.7,-0.82l14.69 -0.88c5.05,0.02 9.91,-0.87 14.73,-0.84 8.25,0.07 16.62,-1.01 24.85,-1.24 2.13,-0.06 2.32,-0.43 4.6,-0.45 6.17,-0.04 14.27,-1.12 19.78,-1.26l98.52 -5.82c3.15,-0.35 10.7,-0.23 14.78,-0.79 1.79,-0.24 3.56,0.01 5.33,-0.14 9.58,-0.79 19.88,-0.99 29.11,-2.02l10.05 -0.47c2.32,0.01 2.7,-0.33 4.62,-0.43 4.78,-0.26 10.1,-0.08 14.84,-0.73l14.67 -0.89c1.76,-0.2 3.51,0.07 5.29,-0.18 1.56,-0.21 2.61,-0.27 4.76,-0.29 4.17,-0.03 15,-1.29 19.77,-1.27l19.77 -1.27c1.79,-0.1 3.62,0.14 5.41,-0.06l19.43 -1.18c3.78,-0.03 15.28,-1.29 19.77,-1.27l14.31 -0.83c2.34,-0.02 2.67,-0.43 5.02,-0.45 3.93,-0.04 6.22,-0.42 10.12,-0.39l89.19 -5.06c0,6.65 1.35,13.07 2.11,19.77l17.74 159.76c2.19,19.74 4.94,40.38 6.64,60.24 0.27,3.17 0.76,6.89 1.14,9.79 1.34,9.97 1.85,19.73 3.25,29.98l4.45 40.14c-2.95,0 -4.1,0.44 -7.15,0.43 -2.9,-0.02 -5.41,-0.01 -7.69,0.3l-37.32 1.39c-2.5,0.08 -5.53,-0.22 -7.95,0.05l-37.08 1.62c-7.07,-0.03 -14.89,0.88 -22.72,0.84 -3.08,-0.01 -4.39,0.43 -7.13,0.44 -2.47,0 -5.59,-0.19 -7.99,0.01 -4.37,0.36 -10.4,0.43 -14.77,0.8 -2.32,0.19 -5.18,-0.03 -7.57,0.01 -3.08,0.04 -4.4,1.36 -6.22,-0.9 -1.46,-1.81 -0.82,-3.74 -0.9,-6.67 -0.05,-1.9 -0.29,-1.8 -0.41,-3.37 -0.5,-6.13 -0.15,-12.34 -1.11,-18.66l-1.85 -29.28c-0.05,-1.91 -0.28,-1.79 -0.41,-3.37 -0.11,-1.35 0.05,-2.83 -0.02,-4.18 -0.1,-1.82 -0.33,-1.54 -0.43,-3.36 -0.32,-6.14 -0.12,-12.36 -1.08,-18.68l-3.37 -50.9c-0.3,-2.01 -0.43,-5.65 -0.57,-7.42 -0.1,-1.23 0.05,-2.46 -0.08,-3.7 -0.14,-1.3 -0.36,-1.55 -0.37,-3.42l-3.33 -47.14c-0.85,-10.83 -1.36,-22.17 -2.48,-32.85l-2.17 -28.96c-0.26,-8.15 -2.37,-26.65 -3.49,-35.63 -0.24,-1.97 -0.98,-4.92 -1.14,-6.85 -5.07,0 -144.01,22.31 -162.27,24.95 -1.95,0.29 -4.37,0.57 -6.62,0.95 -8.05,1.36 -10.93,0.58 -13.11,10.45 -2.99,13.49 -1.85,75.61 -1.85,91.94l0 23.14c0,3.12 -0.36,5.06 -0.43,7.55 -0.27,8.98 0.84,23.55 -0.05,31.5 -1.05,9.32 -0.38,20.72 -0.36,30.77 0.01,5.07 -0.42,9.61 -0.42,15.14 0,5.33 0,10.65 0,15.98 0,5.62 -0.42,9.76 -0.42,15.14l-0.42 46.69c-6.43,0 -11.51,0.45 -17.68,0.41 -5.52,-0.03 -12.19,0.88 -17.65,0.86 -1.52,-0.01 -3.15,-0.07 -4.65,-0.03 -2.08,0.06 -2.1,0.39 -4.18,0.45 -3.3,0.1 -6.2,-0.09 -8.97,0.29l-26.81 0.95c-3.48,-0.02 -5.26,0.43 -8.83,0.42l-17.98 0.53c-4.65,0.64 -12.47,0.64 -17.8,0.71l-8.83 0.42c-2.99,0 -5.3,0.44 -8.83,0.42 -8.54,-0.04 -17.29,1.33 -26.07,1.27 -8.59,-0.07 -17.95,1.27 -26.49,1.28 -5.64,0 -12.05,0.89 -17.68,0.83l-34.92 2.1c-4.67,-0.01 -12.46,0.86 -17.28,1.23 -20.4,1.55 -16.77,0.11 -12.54,11.75 1.15,3.16 2.31,6.19 3.61,9.43 2.31,5.77 4.71,13.47 7.27,18.81l20.98 -0.9c1.75,-0.2 2.76,-0.36 5.12,-0.35l42.05 -2.54c7.3,0.04 31.45,-1.61 37.05,-2.07l15.53 -0.88c2.53,-0.02 3.57,-0.23 5.51,-0.38 1.79,-0.15 3.6,0.11 5.38,-0.08l62.77 -3.7c1.78,-0.15 3.53,0.11 5.33,-0.14 4.85,-0.67 16.07,-0.98 21.16,-1.13l52.98 -2.98c6.48,-0.53 14.26,-1.23 21.07,-1.23 2.43,0 2.86,-0.38 5.02,-0.45l42.45 -2.15c1.76,-0.19 2.77,-0.33 5.12,-0.34 2.35,-0.02 2.68,-0.43 5.02,-0.45 2.27,-0.02 3.49,-0.06 5.18,-0.29 1.79,-0.24 3.56,-0.01 5.35,-0.11 1.96,-0.11 2.59,-0.45 5.04,-0.43l31.98 -1.68c2.43,0.03 3.25,-0.24 5.08,-0.39 1.78,-0.15 3.54,0.11 5.33,-0.14 4.71,-0.64 10.97,-0.55 15.74,-1.09l26.45 -1.32c2.4,0.02 3.26,-0.25 5.07,-0.4l10.93 -0.43c2.44,0.01 2.86,-0.38 5.02,-0.45l42.11 -2.49c1.74,-0.14 3.68,0.1 5.42,-0.04l31.56 -1.68c1.82,-0.15 2.64,-0.42 5.07,-0.39l68.59 -3.78c4.54,-0.04 15.64,-1.28 21.03,-1.26l10.57 -0.79c2.51,-0.29 11.1,0.24 12.9,-0.99 2.59,-1.78 0.88,-7.31 0.93,-12.54 0.03,-3.04 -0.47,-8.18 -0.79,-10.99l-0.89 -16.35c0.01,-2.54 -0.43,-3.04 -0.45,-5.44 -0.06,-7.06 -0.67,-15.16 -1.22,-21.91l-0.86 -16.81c0.01,-2.55 -0.42,-3.05 -0.44,-5.45 -0.05,-7.35 -1.18,-14.55 -1.24,-21.9l-1.28 -21.86c0.06,-5.36 -1.28,-15.97 -1.25,-21.88l-1.33 -22.22c-0.19,-1.74 -0.35,-2.76 -0.35,-5.12 0.01,-2.54 -0.42,-3.04 -0.45,-5.44l-2.09 -38.29c0.02,-2.6 -0.38,-3.26 -0.43,-5.46 -0.08,-3.26 -0.11,-8.04 -0.58,-11.19 -0.45,-2.98 -0.63,-8.06 -0.65,-11.13l-1.28 -21.86c0.03,-2.58 -0.32,-3.44 -0.42,-5.46l-1.68 -27.76c-0.19,-3.63 -0.08,-7.3 -0.48,-10.87l-1.61 -27.84c0.01,-2.54 -0.43,-3.05 -0.43,-5.46l11.78 0c3.84,0 2.65,-8.35 2.35,-10.34 -0.54,-3.57 -0.95,-20.91 -1.07,-25.01l-0.83 -11.79c-0.12,-1.47 0.03,-3.13 -0.01,-4.62 -0.06,-2.01 -0.34,-1.92 -0.43,-3.77 -0.07,-1.36 0.05,-2.85 0.01,-4.22 -0.06,-2.01 -0.34,-1.92 -0.43,-3.77 -0.08,-1.49 0.08,-3.14 0,-4.63 -0.1,-1.85 -0.38,-1.76 -0.43,-3.77 -0.12,-4.1 0.06,-8.27 -0.52,-12.51l-1.55 -32.94c-0.03,-2.68 -0.42,-4.73 -0.42,-7.99 -0,-7.83 -1.03,-16.79 -1.26,-24.81 -0.06,-2.01 -0.34,-1.92 -0.43,-3.77 -0.07,-1.36 0.08,-2.85 0,-4.21 -0.1,-1.85 -0.38,-1.76 -0.44,-3.77l-2.08 -45.45c0.06,-6.41 -1.41,-28.48 -2.09,-36.61 -0.12,-1.48 0.06,-3.12 -0.02,-4.61 -0.1,-1.85 -0.38,-1.76 -0.44,-3.77 -0.04,-1.37 0.09,-2.86 0.02,-4.22 -0.1,-1.85 -0.38,-1.76 -0.44,-3.77l-0.39 -12.65c-0.01,-8.27 -1.78,-25.02 -1.7,-32.8l-1.2 -20.25c-0.17,-1.51 -0,-3.06 -0.05,-4.58 -0.06,-2.01 -0.34,-1.92 -0.44,-3.77 -0.07,-1.36 0.06,-2.85 0.02,-4.22 -0.06,-2.01 -0.34,-1.92 -0.44,-3.77l-0.41 -12.63c0.04,-8.03 -1.36,-16.78 -1.27,-24.8 0.1,-9.28 -1.68,-23.1 -1.67,-32.83 0.01,-8.29 -1.33,-16.08 -1.27,-24.39 0.02,-3.28 -0.45,-4.94 -0.43,-8.41 0.03,-3.32 -0.34,-4.89 -0.4,-8.02 -0.08,-4.28 -4.91,-7.11 -8.09,-9.15 -6.25,-4.02 -37.59,-18.17 -42.42,-18.17 -10.92,0 -95.82,16.43 -114.47,20.15l-101.54 19.63c-3.95,0.79 -7.39,1.57 -11.14,2.32l-22.52 4.4c-7.97,1.42 -14.9,2.92 -22.5,4.43l-247.46 49.13c-9.34,1.89 -24.88,5.49 -33.97,6.42 -13.23,1.35 -61.9,7.98 -67.61,16.53 -1.88,2.82 -1.43,1.58 -7.53,2.57 -19.57,3.15 -38.6,5.34 -58.05,9.26 -3.87,0.78 -7.54,1.23 -11.35,2.11 -5.65,1.31 -10.82,2.15 -16.02,4.17 -1.83,0.71 -3.59,1.28 -3.59,3.56z"/>
   <path class="fil1" d="M212.46 169.93c0,10.37 -12.26,14.78 -20.13,17.73 -9.65,3.6 -19.91,5.6 -29.93,7.93 0,13.4 6.96,20.36 7.99,24.81 4.48,0 23.91,-3.84 24.85,-3.6 1.29,0.33 1.3,3.69 1.62,5.32 1.32,6.6 1.3,13.6 1.3,20.58l0.84 27.76c0.25,4.62 -0.16,9.65 -0.02,14.32l1.03 42.29c0.66,4.36 0.26,9.48 0.24,14.06 -0.01,2.92 0.37,4.37 0.43,6.71 0.07,2.46 -0.01,5.1 -0.01,7.58 0,5.2 0.43,8.99 0.42,13.88l0.43 13.87c0.13,4.38 -0.42,10.1 0.05,14.25 0.48,4.27 0.36,9.45 0.36,14.36 -11.45,0 -22.44,-0.88 -34.09,-0.83 -3.09,0.01 -4.95,-0.44 -8.4,-0.43l-17.25 -0.42c-3.4,0 -5.5,-0.42 -8.41,-0.42 0,-6.19 -1.21,-12.79 -1.25,-19.36 -0.02,-2.35 -0.35,-3.94 -0.42,-6.73l-0.84 -13.04c-0.28,-10.59 -1.58,-22.69 -2.12,-33.22l-0.84 -16.41c-0.1,-1.83 -0.33,-1.53 -0.42,-3.36l-0.43 -6.72c-0.07,-2.8 -0.41,-4.38 -0.42,-6.73l-2.2 -39.86c-0.56,-4.12 -0.94,-23.89 -2.02,-26.16 -2.89,-6.06 -31.04,-5.08 -37.42,-5.08 0.43,5.23 2.43,9.63 2.54,18.49 0.03,2.32 -0.18,4.76 0.16,6.99 0.36,2.36 0.2,4.42 0.23,6.93 0.03,2.51 0.46,3.76 0.44,6.71l4.2 102.22c-0.01,2.95 0.41,4.2 0.44,6.71 0.12,9.43 0.8,17.88 0.81,27.37l0.74 13.56c0.31,2.26 0.54,22.02 1.16,23.66 1.49,3.9 5.71,0.3 8.3,-0.12l56.72 -2.19c4.77,-0 11.19,-0.86 15.96,-0.87l80.79 -3.35c5.65,-0.31 10.81,-0.33 16.43,-0.4 4.75,-0.06 11.12,-0.89 15.96,-0.87 10.87,0.05 21.48,-1.22 32.42,-1.24l15.96 -0.87c5.97,-0.07 10.53,-0.43 16.43,-0.4l15.98 -0.85c5.71,-0.31 10.74,-0.23 16.43,-0.41l32.03 -1.63c2.62,-0.29 5.67,0.17 8.29,-0.12l48.44 -2.05c3.25,0.02 5.41,-0.28 8,-0.42 5.7,-0.31 10.73,-0.11 16.41,-0.42 10.17,-0.55 21.72,-0.81 32,-1.66 2.74,-0.23 5.57,0.23 8.27,-0.14 6.14,-0.84 17.3,-0.32 24.16,-1.09 2.59,-0.29 5.7,0.08 8.36,-0.06 13.43,-0.73 27.46,-1.68 40.81,-1.68l0 -4.63 -14.31 0 -0.48 -13.4c-0.61,-5.46 -1.96,-48.25 -2.02,-53.92l-0.61 -13.26c-0.65,-4.28 -2.36,-63.07 -2.34,-67.49l-0.54 -13.76c-0.98,-7.16 0.49,-2.72 -1.82,-12.05 -1.07,-4.33 -1.43,-6.14 -5.8,-8.08 -3.2,-1.42 -6.69,-2.64 -10.19,-3.69 -4.73,-1.41 -26.35,-6.53 -28.91,-5.48 -0.99,0.4 -0.36,0.05 -0.98,0.73 -1.29,1.39 -0.87,2.9 -0.69,4.17 0.79,5.37 1.07,32.37 2.12,39.97l2.21 39.85c-0.04,4.24 0.75,9.06 0.86,13.02 0.15,4.86 0.15,8.68 0.41,13.48l4.21 73.18c-0.03,2.95 0.42,4.23 0.42,6.73 -24.25,0 -49.06,-1.68 -73.21,-1.68 -6.56,0 -11.87,-0.42 -18.09,-0.42 -15.55,0 -30.59,-0.91 -45.86,-0.84 -3.56,0.02 -5.53,-0.43 -9.25,-0.42 -24.66,0.05 -48.95,-1.28 -73.63,-1.26 -23.95,0.01 -49.06,-1.68 -73.21,-1.68 0,-9.16 -1.14,-17.35 -1.25,-26.52 -0.1,-8.41 -1.66,-17.74 -1.71,-26.05l-3.76 -65.64c-0.22,-8.48 -1.62,-17.19 -1.68,-26.08 -0.02,-2.46 -0.44,-3.46 -0.42,-6.3l-3.38 -59.3c3.2,-0.74 37.75,-6.58 38.5,-6.13 1.54,0.92 0.63,8.21 0.63,10.34 0,10.13 -0.46,63.3 -0.01,67.73 0.41,4.06 4.51,2.52 8,2.5l62.88 -4.86c6.73,-1 14.36,-0.87 20.98,-1.74 3.77,-0.5 40.9,-3.19 41.74,-2.85 0.61,0.24 2.29,2.08 2.84,2.64l26.7 24.2c1.03,0.87 1.78,1.77 2.74,2.72l11.93 10.79c1.32,1.02 1.85,1.91 3.12,2.77 -0.55,1.15 -0.94,2.59 -1.5,3.97l-4.57 12.26c-1.16,2.9 -1.91,5.38 -3.06,8.3 -0.59,1.49 -0.99,2.36 -1.55,3.92 -0.61,1.72 -1.13,2.66 -1.52,4.36l-36.63 -1.24c-1.86,-0.15 -4.36,-0.03 -6.29,-0.02 -2.68,0.01 -3.8,-0.31 -5.88,-0.43 -1.98,-0.11 -4.31,0.01 -6.32,0.01 -2.69,0.01 -3.44,-0.42 -5.86,-0.45 -2.05,-0.03 -4.31,0.13 -6.33,0.02 -2.09,-0.11 -3.21,-0.44 -5.88,-0.43 -8.53,0.05 -16.13,-0.71 -24.84,-0.82 -2.43,-0.03 -3.17,-0.46 -5.87,-0.45 -5.37,0.02 -13.2,0.11 -18.28,-0.65 -7.21,-1.09 -17.17,0.25 -24.4,-0.84 -3.82,-0.58 -8.34,0.16 -12.2,-0.42 -1.63,-0.25 -4.38,-0.58 -5.93,0.03 -0.77,0.31 -2.73,2.47 -3.19,3.12 -1.26,1.79 -0.72,2.96 -0.46,5.16 0.56,4.74 0.84,13.2 1.94,17.41 0.79,3.04 4.64,4.06 7.66,4.96 3.42,1.02 7.2,1.37 10.79,1.83 8.17,1.06 33.46,0.99 43.23,0.95 2.69,-0.01 3.44,0.42 5.86,0.45 7.98,0.1 17.99,-0.63 25.66,0.01 7.54,0.63 16.62,0.4 24.84,0.4 4.58,-0 7.57,0.42 12.2,0.42 20.93,-0 42.21,0.84 63.11,0.84 1.43,-2.71 3.23,-6.06 4.45,-9.01 2.88,-6.98 9.82,-20.38 13.36,-27.45 6.07,-12.13 11.64,-24.81 17.95,-36.73 -2.11,-1.41 -6.39,-6.18 -8.52,-8.31l-45.44 -43.75c-0.79,-0.7 -1.34,-1.33 -2.11,-2.1l-12.94 -12.72 -35.36 2.92c-6.1,0.49 -12.63,0.42 -18.18,1.17l-53.73 3.91c-8.94,0.07 -18,1.39 -26.96,2.07 -3.34,0.26 -5.81,0.45 -9.23,0.45 1.38,-2.87 2.39,-8.3 3.19,-11.52l9.34 -34.83c2.41,-9.71 -0.78,-6.68 18.84,-10.61l24.58 -4.87c3.81,-0.91 8.41,-1.83 12.26,-2.47 12.29,-2.04 24.72,-4.89 36.86,-7.31l49.23 -9.68c8.08,-1.58 16.52,-3.45 24.63,-4.82 4.25,-0.72 8.36,-1.82 12.2,-2.53 4.39,-0.81 8.12,-1.47 12.4,-2.32l24.59 -4.86c12.08,-2.85 24.66,-4.81 36.91,-7.27l73.69 -14.66c4.46,-0.92 8.4,-2.13 13.01,-2.13 0,2.16 1.01,14.8 2.41,16.52 2.21,2.73 1.94,2.99 2.89,6.78 0.71,2.82 1.05,5.11 1.55,8.13 2.24,13.41 3,29.22 4.11,43.42l1.66 27.36c0.1,1.87 0.41,2.02 0.44,4.19 0.02,1.68 -0.05,3.4 -0.03,5.08l0.43 9.25c-0.01,3.22 0.45,5.56 0.43,9.24 -0.03,5.83 0.85,12.45 0.86,18.07 0.01,9.56 0.87,18.75 0.82,28.2l1.68 65.2c-0.02,3.39 0.43,5.53 0.43,9.25 -0.02,13.12 0.42,25.01 0.42,38.28 0,8.23 -10.9,6.31 26.93,6.31 0.71,0 6.04,-3.61 7.15,-4.21 0,-3.84 -0.99,-8.81 -1.25,-12.63 -0.29,-4.33 -0.77,-8.97 -1.21,-13.09 -0.49,-4.62 -0.49,-8.73 -0.97,-13.33l-3.66 -38.83c-0.93,-8.82 -1.17,-17.52 -2.29,-26.32 -0.49,-3.91 -0.83,-8.33 -1.17,-12.71l-4.62 -52.58c-1,-13 -2.73,-26.29 -3.73,-39.17l-2.14 -26.04c-0.37,-8.57 -2.09,-17.52 -2.51,-26.09 -0.55,-11.18 -2.22,-27.96 -3.45,-39.46l-1.62 -19.41c-0.38,-7.95 0.55,-5.21 -13.4,-2.9 -13.76,2.28 -33.49,6.5 -47.84,9.38l-23.91 4.7c-79.48,15.89 -158.32,30.73 -237.78,46.62 -8.12,1.62 -15.81,2.97 -23.91,4.7 -4.69,1 -3.64,-0.07 -6.85,-2.49 -2.12,-1.6 -6.71,-0.46 -9.57,-0.05l-32.34 3c-8.59,1.1 -17.56,1.79 -26,2.61 -10.58,1.02 -33.48,3.4 -44.06,6.01 -1.86,0.46 -3.7,1.17 -5.55,1.6z"/>
   <path class="fil1" d="M164.5 753.33c4.01,0 2.5,2.1 4.63,2.1l157.35 0c1.07,0 1.94,-1.43 2.95,-2.1l-3.76 -26.1c-4.88,-34.83 -9.46,-70.68 -14.57,-105.31l-10.15 -72.29c-0.33,-2.26 -0.8,-4.61 -0.96,-6.6l-115.32 14.26c-2.38,0.41 -1.5,0.63 -2.09,8.42 -0.1,1.28 -0.3,3.32 -0.51,4.96 -2.05,15.99 -3.45,36.73 -5.28,54.03l-2.71 29.67c-1.59,12.18 -2.29,28.72 -3.85,39.48l-1.91 19.96c-0.8,11.81 -2.79,27.4 -3.8,39.53z"/>
   <path class="fil1" d="M626.46 421.46c0,0.97 0.29,1.26 1.26,1.26l32.4 0 0 -4.63 -33.66 0 0 3.37z"/>
  </g>
 </g>
</svg>
