<?xml version="1.0" encoding="UTF-8"?>
<!DOCTYPE svg PUBLIC "-//W3C//DTD SVG 1.1//EN" "http://www.w3.org/Graphics/SVG/1.1/DTD/svg11.dtd">
<!-- Creator: CorelDRAW 2018 (64 Bit Versão de avaliação) -->
<svg xmlns="http://www.w3.org/2000/svg" xml:space="preserve" width="83.8805mm" height="25.7344mm" version="1.1" style="shape-rendering:geometricPrecision; text-rendering:geometricPrecision; image-rendering:optimizeQuality; fill-rule:evenodd; clip-rule:evenodd"
viewBox="0 0 5691.13 1746.03"
 xmlns:xlink="http://www.w3.org/1999/xlink">
 <defs>
  <style type="text/css">
   <![CDATA[
    .fil1 {fill:#FF6600}
    .fil0 {fill:#FF6600;fill-rule:nonzero}
   ]]>
  </style>
 </defs>
 <g id="Camada_x0020_1">
  <metadata id="CorelCorpID_0Corel-Layer"/>
  <path class="fil0" d="M2324.79 97.83l-16.11 100.12 -316.48 17.26 47.19 447.67 273.9 -4.6 0 93.21 -379.77 56.39 -84.01 -756.09 475.3 46.03zm552.4 621.45l3.45 1.15 -5.75 72.5 -67.9 -2.3 -398.19 10.36 -4.61 -314.18 290.01 19.57 0 -95.52 -199.09 8.05 -5.76 -78.26 288.86 -54.09 46.03 412 52.94 20.71zm-182.99 -126.59l-194.49 0 16.11 124.29 170.32 5.75 8.05 -130.04zm662.89 -224.41l281.96 -27.62 -34.53 468.39 -96.67 -3.45 2.3 -351 -163.41 37.97 -20.72 316.48 -86.32 -3.45 -3.45 -351 -166.87 43.73 11.51 302.67 -79.41 8.05 -79.4 -490.25 130.04 -18.41 4.61 59.84 299.21 -39.13 1.15 47.18zm512.12 -20.71l-8.05 471.84 -116.24 -4.6 50.64 -468.4 73.65 1.15zm16.11 -59.84l-94.36 0 -5.76 -110.48 109.33 6.91 -9.21 103.58zm206 531.68l-79.42 -507.52 132.35 -17.26 6.91 64.45 349.85 -29.92 -32.22 490.26 -88.62 -3.45 -3.45 -365.97 -215.21 32.22 11.51 329.14 -81.71 8.06zm569.66 3.45l-71.36 -817.09 96.68 -5.75 52.94 384.37 346.4 -41.43 -33.37 469.55 -93.21 -3.46 -3.45 -327.98 -203.7 37.97 13.81 295.77 -104.73 8.05zm971.31 -486.8l-46.03 482.2 -357.91 -12.66 0 -1.15 -49.49 -468.39 453.43 0zm-98.98 116.23l-253.17 -17.27 43.73 277.36 169.17 21.87 40.27 -281.96z"/>
  <path class="fil0" d="M2309.83 1119.03l11.65 -323.75 86.76 0 15.54 830.11 -432.54 25.9 -82.88 -528.37 401.46 -3.88zm-11.66 125.61l-243.47 0 23.31 291.38 224.05 -24.6 -3.89 -266.78zm255.12 417l-53.1 -545.21 495.99 -15.54 -3.88 352.25 -334.12 -7.77 -1.3 110.08 262.89 9.06 6.47 62.16 -372.96 34.96zm112.66 -306.92l208.5 -9.07 -22.01 -138.57 -180.01 -5.18 -6.48 152.81zm1231.57 264.18l-409.23 62.16 -73.82 -589.24 472.68 36.26 -3.89 90.65 -334.12 6.48 46.63 326.34 293.97 -18.13 7.77 85.47zm578.87 -68.64l3.89 1.3 -6.48 81.59 -76.4 -2.59 -448.08 11.65 -5.18 -353.54 326.34 22.02 0 -107.48 -224.03 9.06 -6.48 -88.07 325.05 -60.86 51.8 463.61 59.58 23.31zm-205.91 -142.45l-218.86 0 18.13 139.86 191.66 6.47 9.06 -146.33zm407.94 -66.05l334.11 -41.44 31.08 327.64 -454.55 29.79 -3.89 -86.76 319.87 -53.09 -2.59 -81.59 -328.94 27.2 -32.37 -345.77 383.33 -11.66 0 85.47 -274.55 41.44 28.49 108.78zm1008.82 208.5l3.89 1.3 -6.47 81.59 -76.41 -2.59 -448.08 11.65 -5.17 -353.54 326.34 22.02 0 -107.48 -224.04 9.06 -6.47 -88.07 325.05 -60.86 51.8 463.61 59.57 23.31zm-205.91 -142.45l-218.86 0 18.13 139.86 191.66 6.47 9.06 -146.33z"/>
  <g id="_1500224813888">
   <path class="fil1" d="M-0 268.6l0 1374.21c0,3.72 3.26,5.38 5.45,7.04l65.51 51.63c1.32,1.05 2.1,1.68 3.46,2.78 1.55,1.26 2.48,1.66 4.13,2.9l46.93 37.4c2.44,1.84 1.56,1.37 5.66,1.37 8.71,0.01 17.99,0.23 26.64,-0.03l24.97 -0.81c4.41,0 8.9,0.09 13.3,0.03 4.66,-0.06 6.98,-0.85 12.46,-0.82 18.14,0.09 33.55,-0.81 51.56,-0.77 16.09,0.03 34.7,-1.6 50.76,-1.56 4.16,0.01 8.33,-0.01 12.5,0 5.35,0.01 8.29,-0.56 12.49,-0.79 8.22,-0.44 17.65,0.63 25.73,-0.03l75.8 -2.31c4.42,0.01 8.85,-0.01 13.28,0.01 5.48,0.03 7.8,-0.76 12.46,-0.81 18.03,-0.22 33.75,-0.75 51.58,-0.75 9.36,0 16.3,-0.8 24.99,-0.78 8.51,0.02 18.01,0.77 26.1,-0.45 7.1,-1.08 17.87,-0.37 25.45,-0.33 5.48,0.03 7.8,-0.76 12.46,-0.82l51.58 -0.74c5.48,0.03 7.8,-0.76 12.46,-0.82 18.03,-0.22 33.64,-0.7 51.6,-0.72 4.94,-0.01 6.49,-0.85 11.67,-0.83l50.8 -0.75c5.33,0.02 7.13,-0.83 12.46,-0.81 7.7,0.03 19.08,0.77 26.24,-0.31l102.67 -1.99c4.94,-0.01 6.49,-0.85 11.67,-0.83 4.43,0.02 8.86,0.02 13.3,0.02l38.29 -0.76c5.33,0.02 7.13,-0.84 12.46,-0.82 8.46,0.03 18.86,0.43 26.01,-0.55 6.91,-0.94 18.14,-0.09 25.59,-0.18 4.66,-0.06 6.98,-0.85 12.46,-0.82 38.48,0.2 77.26,-2.38 115.59,-2.33l38.27 -0.78c5.41,0.02 8.11,-0.68 12.47,-0.81 8.5,-0.26 17.31,0.31 25.82,0.05l101.55 -3.11c8.34,-0.69 18.12,0.61 26.47,-0.08 16.21,-1.34 33.92,-1.17 50.86,-1.47 6.41,-0.11 11.51,-5.99 16.24,-9.53 5.92,-4.43 41.51,-30.67 41.51,-37.36l0 -3.9c-112.41,0 -223.41,3.12 -335.83,3.12 -13.94,0 -26.71,0.78 -41.39,0.78 -12.8,0 -29.86,-0.98 -42.13,0.04 -26.07,2.16 -57.75,-1.51 -83.72,1.4 -14,1.57 -46.13,0.16 -63.15,0.12 -7.65,-0.02 -12.42,0.79 -20.3,0.78l-105.44 0.78c-7.44,-0.03 -12.41,0.79 -20.31,0.78 -11.98,0 -30.92,-1.13 -42.06,0.12 -12.28,1.38 -27.92,0.67 -41.51,0.67 -34.51,-0.01 -69.91,1.73 -104.66,1.55 -7.16,-0.03 -12.46,0.79 -20.31,0.79 -7.02,0 -14.05,0 -21.08,0 -7.75,0 -13.45,0.83 -20.3,0.79 -14.04,-0.07 -29.44,-0.33 -42.22,0.73 -12.63,1.04 -29.05,-0.15 -42.17,0.01 -4.34,0.05 -4.97,0.79 -9.31,0.85l-32.06 -0.05c-6.84,-0.03 -12.55,0.79 -20.29,0.79 -6.93,0 -14.23,-0.23 -21.11,-0.03 -4,0.12 -4.8,0.83 -9.32,0.83l-21.92 -0.05c-4.7,0.01 -5.67,0.79 -10.1,0.84 -14.63,0.18 -27.29,0.77 -41.43,0.75l-30.48 0.76c-4.07,0.12 -5.32,0.84 -10.11,0.82 -3.38,-0.01 -6.83,-0.09 -10.2,-0.05 -4.44,0.05 -5.41,0.83 -10.1,0.84 -14.49,0.01 -47.93,1.02 -60.17,3.87 -3.22,-4.81 -15.69,-17 -20.5,-22.45l-17.58 -19.9c-4.84,-5.5 -10.12,-10.11 -14.58,-15.88l-17.81 -19.67c-7.26,-7.29 -6.07,-5.39 -6.07,-18.92 0.01,-8.33 0.01,-16.66 0,-24.99 0,-8.69 0.79,-14.55 0.78,-23.42l0 -74.96c0,-17.04 0.79,-32.03 0.79,-48.41 0,-78.56 1.21,-156.59 0.77,-235.03 -0.03,-5.25 0.77,-7.08 0.82,-11.67 0.41,-32.94 -0.03,-66.21 -0.03,-99.19 0,-17.34 0.78,-32.4 0.78,-49.19l0.78 -197.54c0,-16.97 0.78,-31.82 0.78,-49.19l0 -74.18c-0.01,-8.71 0.78,-15.05 0.78,-24.21 0,-16.49 -1.18,-88.83 0.33,-98.83 1.65,-10.88 0.45,-81.77 0.45,-98.71 0,-16.16 0.79,-31.45 0.78,-48.41 0,-11.99 1.25,-24.39 1.59,-35.89 0.12,-4.08 -0.24,-8.49 -0.03,-12.52l1 -23.2c1.51,-11.04 -2.99,-21.71 4.11,-27.12l36.89 -31.84c1.55,-1.38 1.93,-1.37 3.49,-2.75l23.45 -20.29c1.55,-1.38 1.97,-1.51 3.47,-2.77l6.66 -5.83c1.93,-1.87 1.03,-1.8 3.72,-2.52l0 17.96c15.18,0 28.77,-3.08 43.63,-5.58l37.81 -6.7c13.41,-2.04 24.95,-4.14 37.85,-6.66 25,-4.89 51.27,-8.66 76.15,-13.66 12.62,-2.54 24.76,-4.46 37.74,-6.77 6.49,-1.16 12,-2.54 18.29,-3.58 6.61,-1.09 12.55,-2.17 19.32,-3.33l38.27 -7.02c12.12,-2.1 24.49,-4.88 37.48,-7.04 12.34,-2.06 24.7,-4.93 37.49,-7.03 24.99,-4.12 50.43,-9.47 75.65,-14.17 13.09,-2.44 24.94,-4.36 37.62,-6.89 11.99,-2.4 25.22,-4.4 37.62,-6.89l113.2 -21.12c37.32,-6.27 75.14,-14.66 112.89,-21.43l74.97 -14.06c43.84,-8.85 87.55,-15.88 131.47,-24.72l94.7 -17.76c4.83,-0.8 72.28,-14.6 74.95,-13.3 4.72,2.28 43.02,32.57 52.35,37.51 0,4.74 0.75,5.68 0.81,10.12l0.75 56.25c0,7.81 0.03,15.63 -0.01,23.43l0.79 21.85c0,7.81 0.01,15.62 0,23.43 -0.01,8.17 0.78,13.48 0.78,21.86 0,7.81 0,15.62 0,23.43 0,8.28 0.82,14.39 0.79,21.85l0.77 90.58c0,8.6 0.79,14.15 0.78,22.65l-0.02 34.38c0.12,4.15 0.84,5.88 0.81,10.9l-0.02 33.59c-0.03,5.02 0.69,6.74 0.81,10.9 0.46,15.26 -0.46,31.12 0.72,45.36 1.2,14.51 -0.85,31.47 0.71,45.36 1.66,14.76 -1.17,31.88 0.68,45.39 1.8,13.13 -1.42,31.73 0.54,44.74 2.21,14.57 -0.75,30.59 0.5,45.57 1.14,13.74 0.78,30.34 0.72,45.35l0.8 21.84c0,7.81 0,15.62 0,23.43l-39.05 2.35c-7.35,0.39 -13.14,0.67 -20.34,0.75 -4.34,0.04 -4.96,0.79 -9.31,0.84l-29.7 1.53c-3.28,0.18 -6.87,-0.13 -10.18,-0.03 -4.08,0.12 -5.32,0.85 -10.11,0.82 -7.35,-0.05 -12.74,0.52 -20.35,0.74 -4.01,0.12 -4.8,0.83 -9.32,0.83l-89.85 4.65c-4.46,-0.04 -6.05,0.47 -9.4,0.75 -3.45,0.28 -7.42,-0.09 -10.92,0.01l-69.46 3.96c-4.21,-0.01 -6.53,0.12 -9.61,0.54l-29.51 1.74c-3.51,0.29 -7.27,-0.24 -10.77,0.16l-29.82 1.42c-4.52,0.01 -5.33,0.71 -9.32,0.83 -7.51,0.22 -13.31,0.81 -20.34,0.75 -4.47,-0.04 -6.05,0.47 -9.4,0.75 -3.53,0.29 -7.12,-0.23 -10.68,0.26 -3.03,0.41 -5.42,0.58 -9.6,0.55l-29.7 1.55c-4.34,0.04 -4.96,0.8 -9.31,0.84 -18.88,0.19 -41.05,2.07 -60.16,3.09 -3.51,0.19 -7.42,-0.24 -10.9,0.04 -5.58,0.46 -14.03,1.02 -19.61,1.48l-20.28 0.81c-4.56,-0.04 -5.71,0.6 -9.36,0.8 -3.74,0.2 -6.88,-0.24 -10.6,0.33l-19.04 1.26c-7.63,0.07 -12.54,0.62 -20.37,0.72 -4.34,0.05 -4.97,0.79 -9.31,0.84l-30.53 1.49c-3.24,0.26 -6.86,-0.14 -10.12,0.03 -3.64,0.2 -4.81,0.83 -9.35,0.8l-79.47 4.1c-10.44,1.42 -52.08,2.77 -60.38,2.88l-79.67 4.67c-3.32,0.27 -6.69,-0.22 -10,0.16l-59.5 2.98c-6.73,0.01 -20.82,1.57 -30.46,1.57l-60 3.26c-5.2,0.58 -13.56,0.96 -18.9,1.4l-40.59 1.59c-4.53,-0.03 -5.72,0.6 -9.35,0.8 -5.5,0.29 -14.33,-2.18 -16.83,4.31 -1.94,5.04 7.22,55.47 7.45,65.96 4.27,0 5.43,-0.48 8.64,-0.74l46.04 -2.38c17.93,-0.94 36.83,-2.64 54.69,-3.11l146.03 -8.6c5.03,-0.27 13.02,-1.12 18,-1.53l27.27 -1.63c9.37,0.04 18.39,-1.62 27.34,-1.55 15.32,0.12 30.84,-1.88 46.12,-2.3 3.96,-0.11 4.31,-0.8 8.54,-0.83 11.45,-0.08 26.49,-2.08 36.71,-2.33l182.88 -10.79c5.84,-0.66 19.87,-0.43 27.44,-1.47 3.33,-0.45 6.6,0.01 9.9,-0.25 17.78,-1.46 36.9,-1.84 54.04,-3.75l18.65 -0.88c4.32,0.02 5.01,-0.61 8.57,-0.8 8.88,-0.48 18.75,-0.14 27.55,-1.35l27.23 -1.66c3.26,-0.37 6.52,0.12 9.82,-0.33 2.89,-0.39 4.84,-0.51 8.83,-0.54 7.73,-0.06 27.84,-2.4 36.69,-2.35l36.69 -2.36c3.33,-0.18 6.72,0.26 10.04,-0.12l36.07 -2.2c7.01,-0.05 28.36,-2.39 36.69,-2.35l26.57 -1.55c4.35,-0.04 4.96,-0.8 9.32,-0.84 7.3,-0.07 11.55,-0.78 18.79,-0.73l165.56 -9.39c0,12.35 2.5,24.26 3.91,36.7l32.94 296.56c4.07,36.64 9.17,74.96 12.33,111.82 0.5,5.89 1.4,12.78 2.12,18.18 2.48,18.52 3.44,36.62 6.04,55.65l8.26 74.5c-5.48,0 -7.61,0.82 -13.26,0.79 -5.39,-0.03 -10.04,-0.03 -14.28,0.56l-69.27 2.58c-4.63,0.14 -10.27,-0.41 -14.75,0.09l-68.84 3.01c-13.12,-0.06 -27.64,1.63 -42.18,1.55 -5.72,-0.03 -8.14,0.81 -13.24,0.81 -4.59,0.01 -10.37,-0.35 -14.82,0.01 -8.11,0.67 -19.31,0.81 -27.42,1.48 -4.32,0.36 -9.61,-0.05 -14.05,0.01 -5.71,0.07 -8.17,2.52 -11.55,-1.67 -2.71,-3.37 -1.51,-6.95 -1.67,-12.38 -0.1,-3.53 -0.53,-3.34 -0.77,-6.26 -0.92,-11.37 -0.28,-22.9 -2.06,-34.64l-3.43 -54.35c-0.09,-3.54 -0.52,-3.33 -0.77,-6.26 -0.2,-2.51 0.09,-5.26 -0.03,-7.77 -0.18,-3.39 -0.61,-2.86 -0.79,-6.24 -0.6,-11.41 -0.23,-22.94 -2.01,-34.68l-6.25 -94.48c-0.56,-3.73 -0.81,-10.48 -1.07,-13.77 -0.18,-2.28 0.09,-4.56 -0.16,-6.87 -0.26,-2.42 -0.66,-2.88 -0.69,-6.34l-6.18 -87.51c-1.57,-20.11 -2.52,-41.16 -4.61,-60.98l-4.02 -53.76c-0.47,-15.14 -4.4,-49.47 -6.47,-66.15 -0.45,-3.65 -1.83,-9.14 -2.12,-12.71 -9.4,0 -267.32,41.41 -301.22,46.31 -3.62,0.53 -8.11,1.07 -12.29,1.77 -14.95,2.52 -20.29,1.07 -24.34,19.39 -5.54,25.04 -3.44,140.36 -3.44,170.68l0 42.95c0.01,5.79 -0.66,9.39 -0.81,14.02 -0.5,16.66 1.57,43.71 -0.09,58.47 -1.94,17.3 -0.71,38.46 -0.66,57.11 0.02,9.42 -0.78,17.84 -0.78,28.11 0,9.89 0,19.78 0,29.67 0,10.43 -0.79,18.12 -0.78,28.11l-0.79 86.67c-11.94,0 -21.37,0.83 -32.81,0.77 -10.25,-0.05 -22.62,1.64 -32.77,1.59 -2.82,-0.01 -5.84,-0.13 -8.64,-0.05 -3.85,0.12 -3.9,0.72 -7.76,0.83 -6.13,0.18 -11.51,-0.16 -16.64,0.54l-49.77 1.77c-6.47,-0.03 -9.77,0.81 -16.39,0.79l-33.37 0.99c-8.64,1.18 -23.14,1.19 -33.05,1.32l-16.39 0.79c-5.54,0.01 -9.83,0.82 -16.4,0.79 -15.86,-0.07 -32.1,2.48 -48.4,2.36 -15.94,-0.12 -33.31,2.35 -49.18,2.37 -10.48,0.01 -22.37,1.65 -32.81,1.55l-64.83 3.9c-8.68,-0.02 -23.13,1.6 -32.09,2.29 -37.87,2.88 -31.13,0.2 -23.28,21.81 2.13,5.86 4.29,11.49 6.71,17.5 4.29,10.71 8.75,25.01 13.49,34.91l38.94 -1.68c3.24,-0.37 5.12,-0.66 9.51,-0.64l78.06 -4.72c13.56,0.08 58.39,-2.99 68.78,-3.85l28.83 -1.63c4.69,-0.03 6.64,-0.42 10.22,-0.71 3.32,-0.28 6.69,0.21 9.99,-0.16l116.53 -6.87c3.3,-0.27 6.56,0.2 9.9,-0.26 9.01,-1.23 29.84,-1.83 39.28,-2.1l98.34 -5.53c12.02,-0.98 26.47,-2.29 39.12,-2.28 4.52,0.01 5.31,-0.71 9.32,-0.83l78.79 -4c3.26,-0.36 5.14,-0.6 9.51,-0.64 4.36,-0.03 4.97,-0.8 9.32,-0.83 4.21,-0.03 6.48,-0.11 9.61,-0.54 3.33,-0.45 6.61,-0.03 9.94,-0.2 3.64,-0.2 4.8,-0.84 9.36,-0.8l59.36 -3.12c4.51,0.05 6.04,-0.45 9.42,-0.73 3.3,-0.27 6.57,0.2 9.9,-0.26 8.75,-1.19 20.36,-1.02 29.22,-2.02l49.1 -2.45c4.46,0.04 6.05,-0.47 9.4,-0.75l20.29 -0.8c4.53,0.01 5.31,-0.71 9.32,-0.83l78.17 -4.62c3.23,-0.26 6.84,0.19 10.07,-0.08l58.58 -3.12c3.39,-0.28 4.91,-0.77 9.42,-0.73l127.32 -7.01c8.42,-0.07 29.03,-2.38 39.05,-2.35l19.61 -1.47c4.67,-0.53 20.61,0.45 23.94,-1.83 4.81,-3.3 1.63,-13.58 1.72,-23.28 0.05,-5.65 -0.88,-15.18 -1.46,-20.41l-1.65 -30.36c0.01,-4.72 -0.79,-5.65 -0.83,-10.1 -0.12,-13.1 -1.24,-28.15 -2.27,-40.67l-1.59 -31.21c0.02,-4.73 -0.79,-5.66 -0.82,-10.11 -0.09,-13.64 -2.2,-27.01 -2.29,-40.65l-2.37 -40.57c0.12,-9.95 -2.37,-29.64 -2.33,-40.62l-2.48 -41.25c-0.36,-3.24 -0.66,-5.12 -0.64,-9.51 0.02,-4.71 -0.79,-5.65 -0.83,-10.1l-3.87 -71.08c0.03,-4.83 -0.7,-6.05 -0.81,-10.13 -0.16,-6.05 -0.2,-14.92 -1.09,-20.78 -0.84,-5.54 -1.17,-14.95 -1.21,-20.65l-2.37 -40.58c0.05,-4.79 -0.59,-6.38 -0.79,-10.14l-3.12 -51.54c-0.35,-6.74 -0.15,-13.54 -0.9,-20.18l-2.99 -51.67c0.01,-4.72 -0.8,-5.66 -0.8,-10.13l21.87 0c7.12,0 4.91,-15.5 4.36,-19.19 -1,-6.62 -1.76,-38.81 -1.99,-46.42l-1.55 -21.88c-0.22,-2.73 0.06,-5.81 -0.02,-8.57 -0.11,-3.74 -0.62,-3.57 -0.81,-7 -0.14,-2.52 0.1,-5.29 0.03,-7.84 -0.11,-3.73 -0.62,-3.56 -0.81,-7 -0.15,-2.77 0.16,-5.82 0.01,-8.6 -0.18,-3.43 -0.7,-3.26 -0.81,-7 -0.22,-7.61 0.11,-15.35 -0.97,-23.23l-2.88 -61.15c-0.05,-4.97 -0.78,-8.77 -0.78,-14.83 -0.01,-14.53 -1.91,-31.18 -2.35,-46.06 -0.11,-3.74 -0.62,-3.57 -0.81,-7 -0.14,-2.52 0.14,-5.29 0.01,-7.81 -0.18,-3.43 -0.7,-3.26 -0.81,-7l-3.87 -84.36c0.11,-11.89 -2.63,-52.86 -3.87,-67.96 -0.22,-2.75 0.11,-5.79 -0.03,-8.55 -0.18,-3.43 -0.71,-3.26 -0.81,-7 -0.07,-2.54 0.17,-5.31 0.03,-7.84 -0.19,-3.43 -0.71,-3.27 -0.81,-7l-0.73 -23.48c-0.02,-15.35 -3.3,-46.44 -3.15,-60.88l-2.23 -37.59c-0.32,-2.81 -0.01,-5.67 -0.09,-8.5 -0.11,-3.74 -0.62,-3.56 -0.81,-7 -0.14,-2.53 0.11,-5.3 0.03,-7.84 -0.11,-3.74 -0.62,-3.57 -0.81,-7l-0.76 -23.45c0.07,-14.91 -2.52,-31.15 -2.36,-46.04 0.18,-17.23 -3.11,-42.88 -3.09,-60.93 0.01,-15.39 -2.47,-29.85 -2.36,-45.27 0.04,-6.09 -0.84,-9.17 -0.79,-15.61 0.05,-6.15 -0.63,-9.08 -0.74,-14.88 -0.14,-7.95 -9.11,-13.19 -15.02,-16.99 -11.6,-7.46 -69.78,-33.72 -78.74,-33.72 -20.28,0 -177.87,30.49 -212.49,37.41l-188.48 36.44c-7.34,1.47 -13.73,2.92 -20.69,4.31l-41.8 8.18c-14.8,2.64 -27.66,5.41 -41.77,8.22l-459.37 91.2c-17.34,3.5 -46.18,10.19 -63.06,11.92 -24.55,2.51 -114.91,14.8 -125.51,30.68 -3.49,5.24 -2.65,2.93 -13.98,4.76 -36.33,5.86 -71.66,9.92 -107.76,17.19 -7.18,1.45 -14,2.28 -21.07,3.92 -10.48,2.43 -20.08,4 -29.74,7.75 -3.39,1.32 -6.66,2.38 -6.66,6.62z"/>
   <path class="fil1" d="M394.4 315.45c0,19.26 -22.76,27.44 -37.37,32.91 -17.92,6.69 -36.96,10.39 -55.57,14.72 0,24.87 12.91,37.79 14.84,46.06 8.32,0 44.38,-7.13 46.13,-6.68 2.4,0.61 2.41,6.85 3.01,9.87 2.46,12.26 2.41,25.24 2.41,38.2l1.57 51.52c0.46,8.58 -0.29,17.91 -0.03,26.58l1.92 78.5c1.22,8.09 0.48,17.59 0.45,26.1 -0.02,5.41 0.68,8.11 0.81,12.46 0.14,4.57 -0.03,9.47 -0.03,14.08 0,9.65 0.79,16.7 0.79,25.77l0.8 25.74c0.24,8.12 -0.77,18.75 0.09,26.46 0.9,7.92 0.67,17.55 0.67,26.66 -21.26,0 -41.65,-1.63 -63.28,-1.54 -5.73,0.02 -9.19,-0.81 -15.6,-0.8l-32.02 -0.78c-6.32,0.01 -10.2,-0.78 -15.62,-0.78 0,-11.49 -2.25,-23.74 -2.32,-35.94 -0.03,-4.36 -0.66,-7.31 -0.79,-12.49l-1.55 -24.21c-0.52,-19.66 -2.92,-42.11 -3.94,-61.66l-1.55 -30.46c-0.18,-3.39 -0.62,-2.84 -0.79,-6.24l-0.8 -12.47c-0.13,-5.19 -0.75,-8.13 -0.79,-12.49l-4.09 -73.99c-1.04,-7.64 -1.74,-44.35 -3.75,-48.57 -5.37,-11.24 -57.62,-9.42 -69.46,-9.42 0.81,9.71 4.52,17.88 4.72,34.32 0.05,4.32 -0.33,8.84 0.3,12.97 0.66,4.39 0.37,8.21 0.42,12.86 0.06,4.66 0.85,6.97 0.82,12.46l7.8 189.74c-0.03,5.48 0.76,7.79 0.82,12.46 0.22,17.51 1.48,33.2 1.5,50.81l1.38 25.17c0.58,4.19 1,40.89 2.16,43.91 2.77,7.25 10.59,0.56 15.42,-0.22l105.29 -4.06c8.85,-0.01 20.78,-1.6 29.62,-1.61l149.98 -6.22c10.5,-0.57 20.06,-0.62 30.49,-0.75 8.81,-0.11 20.64,-1.65 29.63,-1.61 20.18,0.09 39.87,-2.27 60.18,-2.3l29.62 -1.62c11.08,-0.14 19.54,-0.8 30.5,-0.74l29.66 -1.57c10.6,-0.57 19.94,-0.43 30.49,-0.75l59.45 -3.03c4.86,-0.54 10.53,0.32 15.39,-0.23l89.92 -3.8c6.02,0.04 10.03,-0.52 14.85,-0.77 10.58,-0.57 19.91,-0.2 30.47,-0.77 18.88,-1.02 40.32,-1.51 59.39,-3.09 5.09,-0.42 10.33,0.43 15.36,-0.25 11.4,-1.56 32.12,-0.59 44.85,-2.02 4.8,-0.54 10.58,0.16 15.51,-0.11 24.93,-1.35 50.97,-3.13 75.75,-3.13l0 -8.59 -26.56 0 -0.9 -24.87c-1.14,-10.14 -3.63,-89.56 -3.76,-100.09l-1.14 -24.62c-1.2,-7.95 -4.38,-117.07 -4.34,-125.27l-1.01 -25.54c-1.82,-13.28 0.92,-5.05 -3.39,-22.38 -1.99,-8.04 -2.66,-11.4 -10.77,-15 -5.94,-2.63 -12.42,-4.9 -18.92,-6.85 -8.77,-2.63 -48.9,-12.12 -53.66,-10.18 -1.84,0.75 -0.67,0.1 -1.83,1.35 -2.39,2.58 -1.62,5.39 -1.28,7.75 1.47,9.97 1.99,60.09 3.93,74.2l4.1 73.97c-0.07,7.87 1.38,16.81 1.6,24.17 0.27,9.02 0.27,16.12 0.75,25.02l7.82 135.85c-0.06,5.48 0.78,7.84 0.78,12.5 -45.01,0 -91.08,-3.13 -135.9,-3.12 -12.17,0 -22.04,-0.79 -33.58,-0.79 -28.87,0.01 -56.78,-1.7 -85.14,-1.55 -6.6,0.03 -10.27,-0.8 -17.18,-0.79 -45.78,0.1 -90.88,-2.37 -136.67,-2.34 -44.46,0.03 -91.08,-3.12 -135.89,-3.12 0,-17 -2.12,-32.21 -2.31,-49.22 -0.18,-15.61 -3.07,-32.94 -3.18,-48.36l-6.98 -121.86c-0.41,-15.75 -3.01,-31.91 -3.12,-48.41 -0.03,-4.56 -0.81,-6.43 -0.79,-11.7l-6.27 -110.08c5.94,-1.38 70.07,-12.21 71.47,-11.38 2.86,1.7 1.17,15.24 1.17,19.19 0,18.81 -0.86,117.51 -0.03,125.74 0.75,7.54 8.37,4.68 14.85,4.64l116.72 -9.02c12.49,-1.86 26.65,-1.62 38.94,-3.24 7,-0.92 75.93,-5.93 77.49,-5.3 1.13,0.45 4.25,3.86 5.27,4.89l49.57 44.93c1.92,1.61 3.3,3.28 5.1,5.05l22.14 20.03c2.46,1.9 3.43,3.55 5.79,5.14 -1.02,2.13 -1.75,4.8 -2.79,7.36l-8.48 22.76c-2.16,5.38 -3.55,9.99 -5.68,15.4 -1.09,2.77 -1.83,4.38 -2.87,7.28 -1.13,3.19 -2.09,4.93 -2.83,8.1l-67.99 -2.3c-3.46,-0.28 -8.1,-0.05 -11.68,-0.03 -4.97,0.03 -7.05,-0.58 -10.92,-0.79 -3.67,-0.2 -8.01,0.01 -11.74,0.03 -5,0.02 -6.38,-0.77 -10.88,-0.83 -3.81,-0.05 -8,0.24 -11.75,0.04 -3.88,-0.21 -5.96,-0.82 -10.92,-0.79 -15.84,0.09 -29.94,-1.32 -46.12,-1.53 -4.51,-0.05 -5.89,-0.85 -10.89,-0.83 -9.96,0.04 -24.51,0.21 -33.93,-1.21 -13.39,-2.03 -31.88,0.47 -45.3,-1.56 -7.08,-1.07 -15.48,0.31 -22.65,-0.78 -3.02,-0.46 -8.13,-1.08 -11,0.05 -1.44,0.57 -5.06,4.59 -5.92,5.79 -2.34,3.32 -1.34,5.5 -0.85,9.57 1.04,8.81 1.57,24.5 3.6,32.32 1.46,5.64 8.62,7.54 14.21,9.21 6.36,1.9 13.37,2.54 20.02,3.4 15.16,1.96 62.11,1.83 80.25,1.76 5,-0.02 6.38,0.77 10.88,0.83 14.8,0.18 33.39,-1.17 47.64,0.01 14,1.16 30.85,0.75 46.12,0.74 8.5,-0.01 14.05,0.78 22.65,0.78 38.85,-0.01 78.35,1.56 117.15,1.56 2.66,-5.03 6,-11.25 8.26,-16.72 5.35,-12.95 18.24,-37.83 24.8,-50.95 11.26,-22.51 21.61,-46.06 33.32,-68.19 -3.92,-2.63 -11.87,-11.47 -15.82,-15.42l-84.34 -81.21c-1.47,-1.3 -2.49,-2.48 -3.91,-3.9l-24.02 -23.62 -65.64 5.42c-11.33,0.91 -23.44,0.78 -33.75,2.17l-99.74 7.26c-16.6,0.14 -33.42,2.57 -50.04,3.84 -6.19,0.47 -10.78,0.83 -17.13,0.83 2.56,-5.33 4.44,-15.4 5.93,-21.39l17.34 -64.65c4.48,-18.03 -1.45,-12.4 34.98,-19.69l45.62 -9.04c7.07,-1.68 15.61,-3.39 22.76,-4.58 22.81,-3.78 45.89,-9.07 68.42,-13.57l91.38 -17.97c14.99,-2.92 30.67,-6.4 45.72,-8.95 7.88,-1.34 15.52,-3.39 22.64,-4.7 8.16,-1.51 15.08,-2.72 23.02,-4.31l45.65 -9.02c22.43,-5.3 45.78,-8.92 68.51,-13.49l136.8 -27.21c8.28,-1.72 15.59,-3.96 24.15,-3.96 0,4 1.88,27.47 4.47,30.67 4.1,5.06 3.6,5.54 5.37,12.59 1.32,5.24 1.94,9.49 2.87,15.08 4.16,24.89 5.57,54.24 7.63,80.6l3.08 50.8c0.18,3.47 0.77,3.75 0.81,7.78 0.04,3.12 -0.1,6.31 -0.06,9.43l0.79 17.17c-0.03,5.98 0.83,10.31 0.79,17.16 -0.05,10.81 1.58,23.11 1.59,33.55 0.02,17.75 1.62,34.8 1.53,52.34l3.12 121.03c-0.03,6.3 0.8,10.27 0.79,17.17 -0.03,24.35 0.78,46.43 0.78,71.06 0,15.27 -20.23,11.71 49.98,11.71 1.31,0 11.21,-6.71 13.28,-7.81 0,-7.12 -1.84,-16.35 -2.32,-23.45 -0.54,-8.03 -1.44,-16.66 -2.25,-24.3 -0.91,-8.58 -0.92,-16.21 -1.8,-24.74l-6.79 -72.07c-1.73,-16.37 -2.18,-32.53 -4.25,-48.85 -0.92,-7.27 -1.54,-15.46 -2.18,-23.59l-8.58 -97.61c-1.85,-24.13 -5.07,-48.8 -6.93,-72.72l-3.97 -48.34c-0.68,-15.92 -3.88,-32.52 -4.66,-48.43 -1.02,-20.75 -4.13,-51.91 -6.4,-73.25l-3.01 -36.03c-0.71,-14.76 1.02,-9.68 -24.87,-5.38 -25.54,4.24 -62.17,12.07 -88.81,17.4l-44.39 8.72c-147.54,29.5 -293.89,57.05 -441.4,86.54 -15.07,3.01 -29.34,5.52 -44.39,8.73 -8.7,1.85 -6.76,-0.14 -12.71,-4.61 -3.94,-2.96 -12.46,-0.85 -17.76,-0.09l-60.04 5.57c-15.94,2.05 -32.6,3.33 -48.26,4.84 -19.64,1.89 -62.14,6.32 -81.79,11.15 -3.45,0.85 -6.87,2.18 -10.3,2.98z"/>
   <path class="fil1" d="M305.37 1398.42c7.44,0 4.63,3.9 8.59,3.9l292.09 0c1.99,0 3.6,-2.65 5.47,-3.9l-6.98 -48.45c-9.05,-64.65 -17.57,-131.2 -27.04,-195.5l-18.85 -134.2c-0.6,-4.2 -1.49,-8.56 -1.79,-12.25l-214.07 26.47c-4.42,0.76 -2.79,1.17 -3.88,15.64 -0.18,2.37 -0.56,6.15 -0.95,9.2 -3.81,29.68 -6.4,68.19 -9.8,100.3l-5.03 55.09c-2.96,22.61 -4.25,53.32 -7.14,73.28l-3.55 37.05c-1.48,21.91 -5.18,50.86 -7.06,73.37z"/>
   <path class="fil1" d="M1162.91 782.36c0,1.8 0.54,2.34 2.34,2.34l60.14 0 0 -8.59 -62.48 0 0 6.25z"/>
  </g>
 </g>
</svg>
