<?xml version="1.0" encoding="UTF-8"?>
<!DOCTYPE svg PUBLIC "-//W3C//DTD SVG 1.1//EN" "http://www.w3.org/Graphics/SVG/1.1/DTD/svg11.dtd">
<!-- Creator: CorelDRAW 2018 (64 Bit Versão de avaliação) -->
<svg xmlns="http://www.w3.org/2000/svg" xml:space="preserve" width="83.8805mm" height="25.7344mm" version="1.1" style="shape-rendering:geometricPrecision; text-rendering:geometricPrecision; image-rendering:optimizeQuality; fill-rule:evenodd; clip-rule:evenodd"
viewBox="0 0 79973.84 24535.84"
 xmlns:xlink="http://www.w3.org/1999/xlink">
 <defs>
  <style type="text/css">
   <![CDATA[
    .fil1 {fill:white}
    .fil0 {fill:white;fill-rule:nonzero}
   ]]>
  </style>
 </defs>
 <g id="Camada_x0020_1">
  <metadata id="CorelCorpID_0Corel-Layer"/>
  <path class="fil0" d="M32668.76 1374.74l-226.44 1406.97 -4447.35 242.55 663.11 6290.89 3848.88 -64.64 0 1309.82 -5336.71 792.39 -1180.53 -10624.88 6679.03 646.9zm7762.51 8732.81l48.53 16.11 -80.85 1018.83 -954.19 -32.32 -5595.47 145.59 -64.74 -4415.03 4075.32 275.06 0 -1342.33 -2797.64 113.17 -80.95 -1099.68 4059.21 -760.07 646.9 5789.58 743.86 291.08zm-2571.39 -1778.9l-2733 0 226.44 1746.58 2393.38 80.76 113.17 -1827.34zm9315.16 -3153.55l3962.15 -388.14 -485.2 6581.98 -1358.44 -48.53 32.32 -4932.36 -2296.33 533.63 -291.18 4447.25 -1212.95 -48.53 -48.43 -4932.36 -2344.95 614.48 161.7 4253.23 -1115.89 113.17 -1115.79 -6889.17 1827.34 -258.76 64.83 840.92 4204.61 -549.84 16.21 663.01zm7196.46 -291.08l-113.17 6630.5 -1633.41 -64.64 711.64 -6582.07 1034.94 16.21zm226.44 -840.92l-1326.02 0 -80.95 -1552.56 1536.35 97.06 -129.38 1455.5zm2894.79 7471.43l-1115.98 -7131.91 1859.85 -242.55 97.06 905.66 4916.25 -420.46 -452.78 6889.26 -1245.27 -48.53 -48.53 -5142.68 -3024.17 452.78 161.8 4625.16 -1148.21 113.27zm8005.06 48.43l-1002.72 -11482.01 1358.54 -80.85 743.86 5401.35 4867.72 -582.16 -468.99 6598.28 -1309.82 -48.62 -48.53 -4608.96 -2862.47 533.63 194.12 4156.27 -1471.71 113.08zm13649.15 -6840.64l-646.8 6776 -5029.51 -177.91 0 -16.11 -695.43 -6581.98 6371.74 0zm-1390.86 1633.31l-3557.71 -242.65 614.48 3897.51 2377.27 307.29 565.95 -3962.15z"/>
  <path class="fil0" d="M32458.62 15725.04l163.7 -4549.46 1219.24 0 218.43 11664.97 -6078.19 363.92 -1164.71 -7424.9 5641.52 -54.54zm-163.8 1765.17l-3421.27 0 327.5 4094.58 3148.4 -345.71 -54.63 -3748.87zm3584.98 5859.85l-746.15 -7661.44 6969.83 -218.43 -54.54 4949.9 -4695.15 -109.17 -18.21 1546.93 3694.24 127.38 90.96 873.53 -5240.98 491.3zm1583.16 -4312.92l2929.88 -127.47 -309.29 -1947.18 -2529.53 -72.75 -91.05 2147.4zm17306.49 3712.35l-5750.59 873.53 -1037.33 -8280.22 6642.33 509.61 -54.63 1273.87 -4695.15 91.05 655.19 4585.88 4131 -254.76 109.17 1201.03zm8134.53 -964.49l54.63 18.21 -91.05 1146.49 -1073.65 -36.33 -6296.62 163.7 -72.75 -4968.11 4585.88 309.39 0 -1510.42 -3148.21 127.38 -91.05 -1237.55 4567.77 -855.22 727.85 6514.85 837.2 327.6zm-2893.55 -2001.72l-3075.47 0 254.76 1965.39 2693.33 90.96 127.38 -2056.35zm5732.47 -928.16l4695.05 -582.35 436.76 4604.09 -6387.48 418.55 -54.63 -1219.24 4494.93 -746.06 -36.33 -1146.59 -4622.4 382.23 -454.88 -4858.85 5386.67 -163.89 0 1201.13 -3858.04 582.35 400.34 1528.63zm14176.3 2929.88l54.63 18.21 -90.96 1146.49 -1073.75 -36.33 -6296.62 163.7 -72.65 -4968.11 4585.88 309.39 0 -1510.42 -3148.31 127.38 -90.96 -1237.55 4567.77 -855.22 727.85 6514.85 837.11 327.6zm-2893.46 -2001.72l-3075.47 0 254.76 1965.39 2693.33 90.96 127.38 -2056.35z"/>
  <g id="_1500224810496">
   <path class="fil1" d="M-0 3774.42l0 19310.88c0,52.34 45.76,75.61 76.66,98.97l920.63 725.46c18.5,14.78 29.46,23.64 48.62,39.09 21.74,17.64 34.9,23.26 58.06,40.71l659.48 525.62c34.32,25.84 21.93,19.26 79.52,19.26 122.42,0.1 252.75,3.24 374.31,-0.38l350.86 -11.35c61.97,0 125.09,1.24 186.97,0.48 65.5,-0.86 98.11,-11.92 175.05,-11.54 254.95,1.33 471.47,-11.44 724.51,-10.87 226.15,0.48 487.58,-22.5 713.35,-21.93 58.45,0.1 117.08,-0.19 175.62,0 75.23,0.19 116.51,-7.91 175.53,-11.06 115.56,-6.2 247.99,8.87 361.63,-0.48l1065.17 -32.42c62.16,0.1 124.42,-0.19 186.59,0.1 76.94,0.38 109.64,-10.68 175.14,-11.44 253.42,-3.15 474.33,-10.58 724.79,-10.58 131.48,0 229.11,-11.25 351.15,-10.96 119.65,0.29 253.04,10.87 366.78,-6.29 99.82,-15.16 251.13,-5.15 357.63,-4.58 76.94,0.38 109.55,-10.68 175.14,-11.54l724.79 -10.39c76.94,0.38 109.55,-10.68 175.14,-11.54 253.42,-3.15 472.71,-9.82 725.08,-10.11 69.41,-0.1 91.24,-11.92 163.99,-11.63l713.93 -10.49c74.84,0.29 100.21,-11.73 175.05,-11.44 108.21,0.38 268.1,10.87 368.79,-4.39l1442.72 -27.94c69.41,-0.1 91.24,-11.92 163.99,-11.63 62.26,0.29 124.52,0.29 186.87,0.29l538.02 -10.68c74.84,0.29 100.21,-11.82 175.05,-11.54 118.89,0.48 265.05,6.1 365.45,-7.72 97.06,-13.25 254.95,-1.24 359.63,-2.48 65.5,-0.86 98.11,-11.92 175.05,-11.54 540.69,2.76 1085.67,-33.47 1624.35,-32.8l537.83 -10.96c76.08,0.29 113.93,-9.53 175.24,-11.35 119.46,-3.62 243.31,4.29 362.87,0.67l1426.99 -43.67c117.18,-9.72 254.66,8.58 371.93,-1.14 227.77,-18.88 476.62,-16.49 714.69,-20.69 90.1,-1.53 161.8,-84.19 228.15,-133.96 83.14,-62.26 583.31,-430.95 583.31,-525.05l0 -54.82c-1579.64,0 -3139.44,43.86 -4719.27,43.86 -195.83,0 -375.36,10.96 -581.69,10.96 -179.82,0 -419.6,-13.73 -592.08,0.57 -366.4,30.32 -811.46,-21.17 -1176.43,19.74 -196.79,22.12 -648.23,2.19 -887.45,1.62 -107.45,-0.29 -174.48,11.06 -285.27,10.96l-1481.62 10.96c-104.5,-0.38 -174.38,11.06 -285.36,10.96 -168.38,0 -434.48,-15.92 -591.03,1.62 -172.57,19.35 -392.33,9.44 -583.31,9.44 -484.91,-0.1 -982.41,24.31 -1470.66,21.83 -100.59,-0.48 -175.05,11.06 -285.36,11.06 -98.68,0 -197.45,0 -296.23,0 -108.88,0 -189.06,11.63 -285.27,11.06 -197.26,-1.05 -413.69,-4.58 -593.32,10.3 -177.43,14.68 -408.26,-2.1 -592.55,0.1 -60.92,0.76 -69.89,11.16 -130.81,11.92l-450.59 -0.67c-96.11,-0.48 -176.29,11.16 -285.17,11.16 -97.34,0 -200.03,-3.24 -296.71,-0.38 -56.16,1.72 -67.5,11.63 -130.91,11.73l-308.05 -0.76c-65.98,0.1 -79.61,11.06 -141.87,11.82 -205.56,2.48 -383.47,10.77 -582.16,10.49l-428.37 10.68c-57.21,1.72 -74.75,11.82 -142.06,11.54 -47.48,-0.19 -96.01,-1.24 -143.3,-0.67 -62.35,0.76 -75.99,11.73 -141.87,11.82 -203.65,0.19 -673.6,14.4 -845.5,54.44 -45.29,-67.6 -220.53,-238.93 -288.03,-315.49l-247.03 -279.64c-67.98,-77.23 -142.25,-142.06 -204.89,-223.2l-250.27 -276.4c-102.02,-102.4 -85.33,-75.7 -85.33,-265.82 0.1,-117.08 0.1,-234.07 0,-351.15 0,-122.13 11.06,-204.41 10.96,-329.12l0 -1053.34c0,-239.41 11.06,-450.11 11.06,-680.27 0,-1103.97 17.07,-2200.51 10.77,-3302.76 -0.38,-73.8 10.77,-99.54 11.54,-163.99 5.72,-462.89 -0.38,-930.45 -0.38,-1393.91 0,-243.6 10.96,-455.26 10.96,-691.23l10.96 -2775.9c0,-238.45 10.96,-447.16 10.96,-691.23l0 -1042.38c-0.1,-122.42 10.96,-211.47 10.96,-340.18 0,-231.78 -16.59,-1248.23 4.67,-1388.76 23.17,-152.93 6.29,-1149.07 6.29,-1387.14 0,-227.11 11.06,-442.01 10.96,-680.27 0,-168.47 17.54,-342.76 22.31,-504.36 1.72,-57.3 -3.43,-119.27 -0.38,-176l14.02 -326.07c21.26,-155.12 -41.95,-305.1 57.78,-381.08l518.38 -447.44c21.83,-19.45 27.17,-19.26 49.01,-38.71l329.5 -285.07c21.83,-19.35 27.74,-21.17 48.72,-39l93.63 -81.99c27.17,-26.31 14.49,-25.27 52.34,-35.37l0 252.37c213.28,0 404.35,-43.29 613.15,-78.37l531.34 -94.2c188.4,-28.7 350.67,-58.16 531.92,-93.63 351.34,-68.74 720.5,-121.75 1070.13,-191.92 177.34,-35.66 348,-62.64 530.39,-95.15 91.24,-16.3 168.57,-35.75 256.95,-50.34 92.86,-15.25 176.29,-30.51 271.44,-46.81l537.83 -98.68c170.38,-29.46 344.19,-68.55 526.67,-98.87 173.43,-28.89 347.05,-69.22 526.77,-98.77 351.15,-57.87 708.68,-133.1 1063.07,-199.08 184.01,-34.23 350.48,-61.21 528.67,-96.77 168.47,-33.75 354.39,-61.88 528.67,-96.87l1590.79 -296.8c524.48,-88.1 1055.92,-205.94 1586.41,-301.19l1053.54 -197.65c616.1,-124.42 1230.3,-223.1 1847.45,-347.43l1330.79 -249.61c67.88,-11.25 1015.68,-205.18 1053.25,-186.97 66.36,32.04 604.47,457.74 735.66,527.15 0,66.55 10.58,79.8 11.35,142.16l10.58 790.49c0,109.74 0.48,219.57 -0.19,329.31l11.16 307c0,109.74 0.1,219.48 0,329.22 -0.19,114.79 10.96,189.45 10.96,307.19 0,109.74 0,219.48 0,329.22 0,116.41 11.54,202.22 11.06,307.1l10.87 1272.82c0,120.8 11.06,198.79 10.96,318.25l-0.29 483.1c1.72,58.35 11.82,82.57 11.44,153.12l-0.29 472.04c-0.38,70.55 9.72,94.77 11.44,153.12 6.48,214.43 -6.48,437.24 10.11,637.37 16.88,203.94 -12.01,442.29 9.92,637.37 23.26,207.37 -16.49,448.01 9.53,637.84 25.36,184.49 -20.02,445.82 7.63,628.69 30.99,204.7 -10.49,429.9 6.96,640.42 16.02,193.07 10.96,426.37 10.11,637.27l11.25 306.91c0,109.74 0,219.48 0,329.22l-548.7 32.99c-103.26,5.43 -184.68,9.44 -285.84,10.49 -61.02,0.57 -69.7,11.16 -130.81,11.82l-417.41 21.55c-46.15,2.48 -96.58,-1.81 -143.11,-0.38 -57.3,1.72 -74.75,12.01 -142.06,11.54 -103.26,-0.67 -178.96,7.25 -285.93,10.39 -56.35,1.62 -67.41,11.73 -131,11.63l-1262.62 65.41c-62.74,-0.57 -85.05,6.58 -132.14,10.49 -48.43,4 -104.21,-1.24 -153.41,0.19l-976.12 55.58c-59.11,-0.1 -91.72,1.72 -135.01,7.63l-414.64 24.41c-49.29,4.1 -102.21,-3.34 -151.4,2.19l-419.03 19.93c-63.5,0.1 -74.84,10.01 -131,11.73 -105.54,3.15 -187.06,11.44 -285.84,10.49 -62.83,-0.57 -85.05,6.67 -132.14,10.49 -49.58,4.1 -100.11,-3.24 -150.07,3.62 -42.52,5.82 -76.18,8.2 -134.91,7.72l-417.31 21.74c-61.02,0.57 -69.7,11.25 -130.81,11.82 -265.24,2.67 -576.92,29.08 -845.4,43.48 -49.29,2.67 -104.3,-3.43 -153.12,0.57 -78.37,6.48 -197.17,14.3 -275.54,20.78l-284.98 11.35c-64.07,-0.57 -80.28,8.49 -131.48,11.25 -52.53,2.76 -96.68,-3.34 -149.02,4.58l-267.63 17.73c-107.26,1.05 -176.19,8.77 -286.22,10.11 -61.02,0.67 -69.89,11.16 -130.81,11.82l-429.04 20.98c-45.48,3.72 -96.39,-2 -142.16,0.48 -51.1,2.76 -67.6,11.73 -131.38,11.25l-1116.75 57.68c-146.64,20.02 -731.85,39 -848.45,40.43l-1119.61 65.69c-46.62,3.81 -94.01,-3.05 -140.53,2.19l-836.06 41.86c-94.58,0.1 -292.61,22.12 -427.99,22.02l-843.11 45.86c-73.13,8.2 -190.59,13.54 -265.53,19.74l-570.43 22.31c-63.69,-0.38 -80.37,8.49 -131.38,11.25 -77.23,4.1 -201.36,-30.7 -236.45,60.54 -27.27,70.84 101.44,779.52 104.69,926.92 59.97,0 76.27,-6.77 121.37,-10.39l646.99 -33.47c251.99,-13.25 517.61,-37.09 768.46,-43.67l2052.06 -120.89c70.74,-3.81 182.96,-15.73 252.94,-21.45l383.28 -22.88c131.67,0.57 258.38,-22.79 384.14,-21.83 215.28,1.72 433.43,-26.41 648.14,-32.32 55.58,-1.53 60.54,-11.25 120.04,-11.73 160.84,-1.14 372.22,-29.27 515.9,-32.8l2569.96 -151.69c82.09,-9.25 279.16,-6.01 385.57,-20.59 46.81,-6.39 92.77,0.19 139.1,-3.53 249.89,-20.5 518.47,-25.84 759.4,-52.72l262.1 -12.3c60.64,0.29 70.46,-8.58 120.42,-11.25 124.8,-6.77 263.43,-2 387.19,-18.97l382.71 -23.26c45.86,-5.15 91.62,1.72 138.06,-4.67 40.62,-5.53 67.98,-7.15 124.14,-7.53 108.69,-0.86 391.19,-33.66 515.61,-33.08l515.61 -33.18c46.81,-2.57 94.48,3.62 141.11,-1.62l506.84 -30.89c98.49,-0.67 398.53,-33.56 515.61,-33.08l373.36 -21.74c61.11,-0.57 69.7,-11.25 130.91,-11.82 102.59,-1.05 162.27,-10.96 264,-10.3l2326.45 -131.95c0,173.52 35.18,340.85 54.92,515.71l462.89 4167.42c57.21,514.95 128.81,1053.34 173.33,1571.34 7.06,82.76 19.74,179.63 29.84,255.42 34.9,260.19 48.34,514.66 84.85,782l116.03 1046.96c-77.04,0 -106.97,11.54 -186.39,11.16 -75.7,-0.48 -141.11,-0.38 -200.7,7.82l-973.45 36.23c-65.12,2 -144.25,-5.82 -207.27,1.24l-967.35 42.33c-184.3,-0.86 -388.43,22.88 -592.74,21.83 -80.37,-0.38 -114.41,11.35 -186.11,11.44 -64.55,0.1 -145.78,-4.96 -208.32,0.19 -113.93,9.44 -271.34,11.35 -385.28,20.78 -60.64,5.05 -135.1,-0.76 -197.45,0.19 -80.28,1.05 -114.79,35.47 -162.27,-23.45 -38.04,-47.29 -21.26,-97.63 -23.45,-174 -1.43,-49.67 -7.44,-46.91 -10.77,-88 -12.97,-159.79 -3.91,-321.78 -28.89,-486.82l-48.15 -763.79c-1.33,-49.77 -7.34,-46.81 -10.77,-88 -2.86,-35.28 1.33,-73.89 -0.48,-109.17 -2.57,-47.58 -8.58,-40.14 -11.16,-87.72 -8.39,-160.27 -3.24,-322.35 -28.22,-487.39l-87.81 -1327.65c-7.91,-52.44 -11.35,-147.3 -14.97,-193.55 -2.48,-32.04 1.33,-64.07 -2.19,-96.49 -3.72,-33.94 -9.34,-40.43 -9.72,-89.15l-86.86 -1229.73c-22.12,-282.6 -35.37,-578.35 -64.74,-856.84l-56.54 -755.49c-6.67,-212.71 -61.88,-695.24 -90.96,-929.49 -6.39,-51.29 -25.65,-128.43 -29.84,-178.67 -132.14,0 -3756.5,581.88 -4232.92,650.71 -50.91,7.44 -114.03,14.97 -172.67,24.88 -210.04,35.47 -285.07,15.06 -342.09,272.49 -77.89,351.81 -48.34,1972.45 -48.34,2398.44l0 603.52c0.1,81.33 -9.34,131.95 -11.35,197.07 -6.96,234.16 22.02,614.2 -1.24,821.66 -27.27,243.12 -9.92,540.5 -9.34,802.59 0.29,132.34 -10.96,250.66 -10.96,395 0,139.01 0,277.92 0,416.93 0,146.54 -11.06,254.56 -10.96,395l-11.06 1217.91c-167.8,0 -300.33,11.73 -461.08,10.77 -144.06,-0.76 -317.87,22.98 -460.5,22.41 -39.57,-0.19 -82.09,-1.81 -121.37,-0.67 -54.15,1.62 -54.82,10.11 -108.98,11.73 -86.09,2.57 -161.7,-2.29 -233.88,7.63l-699.43 24.88c-90.86,-0.48 -137.29,11.35 -230.35,11.06l-468.99 13.92c-121.37,16.59 -325.21,16.78 -464.41,18.5l-230.35 11.06c-77.89,0.1 -138.15,11.54 -230.44,11.06 -222.82,-1.05 -451.07,34.8 -680.17,33.18 -224.06,-1.72 -468.13,33.08 -691.04,33.27 -147.21,0.1 -314.34,23.17 -461.08,21.74l-911 54.82c-121.94,-0.29 -325.02,22.5 -450.88,32.13 -532.2,40.43 -437.43,2.76 -327.12,306.53 29.94,82.38 60.35,161.41 94.29,245.89 60.26,150.55 122.9,351.43 189.64,490.63l547.17 -23.55c45.57,-5.15 71.98,-9.34 133.67,-9.06l1096.92 -66.36c190.49,1.14 820.52,-42.05 966.58,-54.06l405.11 -22.88c65.88,-0.48 93.25,-5.91 143.68,-10.01 46.62,-3.91 94.01,2.96 140.44,-2.19l1637.51 -96.58c46.34,-3.81 92.2,2.86 139.1,-3.62 126.61,-17.35 419.32,-25.65 552.03,-29.56l1381.9 -77.7c168.95,-13.82 372.03,-32.13 549.75,-32.04 63.5,0.1 74.65,-10.01 131,-11.63l1107.21 -56.16c45.86,-5.05 72.17,-8.49 133.57,-8.96 61.31,-0.48 69.79,-11.25 131,-11.73 59.21,-0.48 91.05,-1.53 135.1,-7.63 46.81,-6.39 92.86,-0.38 139.68,-2.86 51.1,-2.76 67.5,-11.82 131.48,-11.25l834.15 -43.86c63.4,0.67 84.85,-6.29 132.43,-10.2 46.34,-3.81 92.29,2.76 139.1,-3.62 122.9,-16.78 286.12,-14.4 410.64,-28.32l689.99 -34.42c62.74,0.57 85.05,-6.58 132.14,-10.49l285.07 -11.25c63.69,0.19 74.65,-10.01 131,-11.63l1098.44 -64.93c45.38,-3.72 96.11,2.67 141.49,-1.14l823.19 -43.86c47.58,-3.91 68.93,-10.87 132.34,-10.3l1789.2 -98.49c118.32,-0.95 407.97,-33.47 548.7,-32.99l275.64 -20.59c65.6,-7.44 289.56,6.29 336.46,-25.74 67.6,-46.43 22.88,-190.78 24.22,-327.12 0.76,-79.42 -12.3,-213.28 -20.5,-286.79l-23.17 -426.56c0.19,-66.26 -11.16,-79.42 -11.73,-141.97 -1.62,-184.11 -17.45,-395.58 -31.94,-571.48l-22.31 -438.58c0.29,-66.45 -11.06,-79.52 -11.54,-142.06 -1.33,-191.73 -30.89,-379.56 -32.23,-571.29l-33.27 -570.15c1.62,-139.77 -33.37,-416.55 -32.7,-570.82l-34.8 -579.68c-5.05,-45.48 -9.25,-71.89 -9.06,-133.57 0.29,-66.17 -11.06,-79.42 -11.63,-141.87l-54.44 -998.9c0.48,-67.88 -9.82,-84.95 -11.35,-142.35 -2.19,-85.05 -2.86,-209.66 -15.25,-291.94 -11.82,-77.8 -16.4,-210.14 -16.97,-290.22l-33.27 -570.24c0.76,-67.31 -8.29,-89.62 -11.06,-142.54l-43.86 -724.22c-4.86,-94.68 -2.1,-190.3 -12.59,-283.64l-41.95 -726.13c0.19,-66.26 -11.25,-79.52 -11.25,-142.35l307.29 0c100.11,0 69.03,-217.86 61.21,-269.63 -14.11,-93.05 -24.79,-545.36 -27.94,-652.33l-21.74 -307.48c-3.15,-38.33 0.86,-81.61 -0.29,-120.42 -1.53,-52.53 -8.77,-50.15 -11.35,-98.39 -1.91,-35.47 1.43,-74.37 0.38,-110.12 -1.53,-52.44 -8.77,-50.05 -11.35,-98.3 -2.1,-39 2.19,-81.8 0.1,-120.8 -2.57,-48.24 -9.82,-45.86 -11.35,-98.39 -3.05,-106.88 1.53,-215.66 -13.63,-326.45l-40.52 -859.32c-0.76,-69.89 -10.96,-123.28 -10.96,-208.42 -0.1,-204.13 -26.89,-438.1 -32.99,-647.28 -1.53,-52.53 -8.77,-50.15 -11.35,-98.39 -1.91,-35.47 2,-74.27 0.1,-109.74 -2.57,-48.24 -9.82,-45.86 -11.44,-98.39l-54.35 -1185.49c1.53,-167.14 -36.9,-742.81 -54.44,-955.05 -3.15,-38.61 1.53,-81.33 -0.48,-120.13 -2.57,-48.24 -9.92,-45.86 -11.44,-98.3 -1.05,-35.75 2.38,-74.65 0.48,-110.12 -2.67,-48.24 -9.92,-45.96 -11.44,-98.39l-10.2 -329.89c-0.29,-215.66 -46.43,-652.62 -44.24,-855.51l-31.37 -528.2c-4.48,-39.47 -0.1,-79.71 -1.24,-119.46 -1.53,-52.53 -8.77,-50.05 -11.44,-98.3 -1.91,-35.56 1.53,-74.46 0.48,-110.12 -1.53,-52.53 -8.77,-50.15 -11.44,-98.39l-10.68 -329.5c1.05,-209.56 -35.47,-437.72 -33.18,-646.99 2.57,-242.17 -43.76,-602.57 -43.48,-856.27 0.19,-216.24 -34.7,-419.41 -33.18,-636.13 0.57,-85.52 -11.82,-128.9 -11.16,-219.29 0.67,-86.48 -8.87,-127.57 -10.39,-209.09 -2,-111.65 -128.05,-185.35 -211.09,-238.74 -162.94,-104.88 -980.6,-473.85 -1106.45,-473.85 -284.98,0 -2499.5,428.47 -2986.03,525.72l-2648.62 512.09c-103.16,20.59 -192.88,41 -290.7,60.54l-587.41 114.89c-207.94,37.09 -388.71,76.08 -587.02,115.46l-6455.27 1281.6c-243.6,49.2 -649,143.2 -886.11,167.52 -345.04,35.28 -1614.72,208.04 -1763.74,431.14 -49.1,73.6 -37.28,41.19 -196.41,66.93 -510.46,82.28 -1007.01,139.39 -1514.33,241.6 -100.87,20.31 -196.69,32.04 -296.04,55.11 -147.3,34.13 -282.21,56.16 -417.89,108.88 -47.67,18.59 -93.63,33.47 -93.63,92.96z"/>
   <path class="fil1" d="M5542.26 4432.76c0,270.58 -319.78,385.66 -525.15,462.41 -251.8,94.01 -519.33,145.97 -780.86,206.89 0,349.53 181.44,531.06 208.51,647.28 116.99,0 623.64,-100.21 648.23,-93.91 33.66,8.58 33.85,96.2 42.33,138.72 34.51,172.28 33.85,354.67 33.85,536.78l22.02 724.03c6.48,120.51 -4.1,251.7 -0.48,373.55l26.98 1103.11c17.16,113.74 6.77,247.22 6.29,366.78 -0.29,76.08 9.53,113.93 11.35,175.14 1.91,64.26 -0.38,133.1 -0.38,197.84 0,135.58 11.16,234.64 11.06,362.11l11.25 361.73c3.43,114.13 -10.87,263.43 1.24,371.84 12.59,111.26 9.44,246.56 9.44,374.6 -298.71,0 -585.31,-22.88 -889.26,-21.64 -80.56,0.29 -129.19,-11.44 -219.19,-11.25l-450.02 -10.96c-88.76,0.1 -143.4,-10.96 -219.48,-10.96 0,-161.41 -31.56,-333.6 -32.61,-505.03 -0.48,-61.31 -9.25,-102.68 -11.06,-175.53l-21.83 -340.18c-7.25,-276.21 -41.09,-591.79 -55.3,-866.47l-21.83 -427.99c-2.48,-47.67 -8.68,-39.95 -11.06,-87.72l-11.25 -175.24c-1.81,-72.94 -10.58,-114.22 -11.06,-175.53l-57.49 -1039.71c-14.68,-107.36 -24.41,-623.16 -52.63,-682.46 -75.42,-157.98 -809.74,-132.43 -976.02,-132.43 11.35,136.44 63.5,251.23 66.26,482.34 0.76,60.64 -4.58,124.23 4.2,182.3 9.34,61.69 5.15,115.36 5.91,180.67 0.86,65.5 11.92,98.01 11.54,175.05l109.55 2666.35c-0.38,76.94 10.68,109.45 11.54,175.05 3.05,246.08 20.78,466.51 21.07,714.02l19.35 353.72c8.1,58.92 14.02,574.53 30.32,617.06 39,101.83 148.83,7.91 216.62,-3.15l1479.53 -57.01c124.33,-0.1 291.94,-22.5 416.27,-22.69l2107.55 -87.43c147.49,-8.01 281.93,-8.68 428.47,-10.49 123.85,-1.53 290.03,-23.17 416.36,-22.6 283.55,1.24 560.23,-31.94 845.69,-32.32l416.27 -22.79c155.69,-1.91 274.59,-11.25 428.66,-10.39l416.74 -22.12c149.02,-8.01 280.21,-6.1 428.47,-10.58l835.39 -42.62c68.27,-7.63 147.97,4.48 216.24,-3.24l1263.58 -53.39c84.66,0.57 141.01,-7.25 208.61,-10.87 148.73,-8.01 279.83,-2.86 428.18,-10.87 265.34,-14.3 566.53,-21.17 834.63,-43.38 71.51,-5.91 145.21,6.1 215.86,-3.53 160.18,-21.93 451.35,-8.29 630.21,-28.32 67.5,-7.63 148.73,2.19 217.95,-1.53 350.38,-18.97 716.31,-43.95 1064.5,-43.95l0 -120.7 -373.17 0 -12.59 -349.53c-16.02,-142.54 -51.01,-1258.52 -52.82,-1406.49l-16.02 -346c-16.88,-111.65 -61.5,-1645.14 -61.02,-1760.41l-14.21 -358.87c-25.55,-186.68 12.87,-70.93 -47.58,-314.44 -28.03,-112.98 -37.37,-160.18 -151.4,-210.8 -83.52,-36.99 -174.48,-68.84 -265.82,-96.3 -123.28,-36.9 -687.23,-170.38 -754.06,-143.01 -25.84,10.49 -9.44,1.43 -25.65,18.97 -33.56,36.23 -22.79,75.7 -17.92,108.88 20.69,140.15 28.03,844.45 55.2,1042.67l57.68 1039.52c-1.05,110.6 19.45,236.26 22.5,339.61 3.81,126.81 3.81,226.53 10.58,351.53l109.83 1909.04c-0.86,77.04 10.96,110.22 10.96,175.62 -632.5,0 -1279.88,-43.95 -1909.71,-43.86 -171.04,0 -309.67,-11.06 -471.85,-11.06 -405.68,0.1 -797.92,-23.84 -1196.36,-21.83 -92.77,0.48 -144.35,-11.25 -241.41,-11.06 -643.37,1.43 -1277.02,-33.27 -1920.58,-32.89 -624.78,0.38 -1279.88,-43.86 -1909.62,-43.86 0,-238.83 -29.75,-452.69 -32.51,-691.71 -2.57,-219.38 -43.19,-462.89 -44.72,-679.51l-98.11 -1712.35c-5.72,-221.29 -42.24,-448.4 -43.86,-680.27 -0.48,-64.07 -11.44,-90.29 -11.06,-164.47l-88.1 -1546.84c83.42,-19.35 984.6,-171.52 1004.34,-159.89 40.23,23.93 16.4,214.14 16.4,269.63 0,264.29 -12.11,1651.24 -0.38,1766.89 10.58,106.02 117.65,65.79 208.61,65.21l1640.18 -126.81c175.53,-26.12 374.51,-22.79 547.17,-45.48 98.39,-12.97 1066.98,-83.33 1088.91,-74.46 15.92,6.29 59.68,54.25 73.99,68.74l696.57 631.36c26.98,22.6 46.43,46.15 71.6,71.03l311.1 281.45c34.51,26.7 48.15,49.86 81.42,72.17 -14.3,29.94 -24.6,67.5 -39.19,103.45l-119.18 319.78c-30.32,75.61 -49.86,140.44 -79.8,216.43 -15.35,39 -25.74,61.59 -40.33,102.3 -15.92,44.81 -29.37,69.31 -39.76,113.84l-955.43 -32.32c-48.62,-4 -113.84,-0.76 -164.08,-0.48 -69.79,0.38 -99.06,-8.2 -153.5,-11.16 -51.58,-2.76 -112.5,0.19 -164.94,0.38 -70.27,0.29 -89.62,-10.87 -152.93,-11.73 -53.49,-0.67 -112.41,3.34 -165.13,0.57 -54.54,-2.96 -83.81,-11.54 -153.5,-11.16 -222.53,1.24 -420.75,-18.59 -648.04,-21.45 -63.4,-0.76 -82.76,-11.92 -153.02,-11.63 -139.96,0.57 -344.38,2.96 -476.81,-17.07 -188.11,-28.51 -448.01,6.58 -636.51,-21.93 -99.54,-15.06 -217.48,4.29 -318.25,-10.96 -42.43,-6.48 -114.32,-15.16 -154.65,0.76 -20.21,8.01 -71.13,64.45 -83.14,81.42 -32.89,46.62 -18.88,77.23 -12.01,134.53 14.68,123.75 22.02,344.28 50.63,454.21 20.5,79.33 121.09,105.93 199.74,129.48 89.34,26.7 187.92,35.75 281.36,47.77 213.09,27.55 872.77,25.74 1127.71,24.69 70.27,-0.29 89.62,10.87 152.93,11.63 208.04,2.57 469.28,-16.4 669.4,0.19 196.69,16.3 433.52,10.49 648.04,10.39 119.46,-0.1 197.45,10.96 318.35,10.96 545.93,-0.1 1101.02,21.93 1646.19,21.93 37.37,-70.65 84.38,-158.08 116.13,-235.02 75.13,-182.01 256.28,-531.53 348.48,-715.93 158.27,-316.35 303.67,-647.19 468.23,-958.19 -55.11,-36.9 -166.75,-161.22 -222.24,-216.71l-1185.2 -1141.16c-20.69,-18.31 -34.99,-34.8 -54.92,-54.82l-337.51 -331.89 -922.44 76.18c-159.22,12.78 -329.41,10.96 -474.33,30.51l-1401.63 102.02c-233.21,1.91 -469.66,36.13 -703.25,53.96 -87.05,6.67 -151.5,11.63 -240.74,11.63 35.94,-74.84 62.35,-216.43 83.33,-300.62l243.7 -908.52c62.93,-253.33 -20.31,-174.29 491.49,-276.68l641.08 -127.09c99.35,-23.64 219.38,-47.67 319.78,-64.36 320.54,-53.11 644.8,-127.47 961.53,-190.69l1284.07 -252.47c210.71,-41.09 431.04,-89.91 642.42,-125.76 110.79,-18.88 218.14,-47.58 318.16,-65.98 114.6,-21.17 211.85,-38.23 323.5,-60.54l641.46 -126.71c315.2,-74.46 643.37,-125.38 962.77,-189.64l1922.3 -382.32c116.41,-24.12 219.1,-55.68 339.42,-55.68 0,56.25 26.41,386.04 62.83,430.95 57.68,71.13 50.63,77.89 75.51,176.86 18.5,73.6 27.27,133.38 40.33,211.95 58.45,349.81 78.28,762.26 107.26,1132.67l43.29 713.83c2.57,48.82 10.77,52.63 11.44,109.26 0.57,43.86 -1.43,88.67 -0.86,132.53l11.16 241.22c-0.38,84.09 11.63,144.92 11.16,241.12 -0.67,151.98 22.21,324.74 22.41,471.47 0.29,249.42 22.79,489.01 21.45,735.57l43.86 1700.72c-0.48,88.48 11.25,144.35 11.16,241.22 -0.48,342.18 10.96,652.43 10.96,998.52 0,214.62 -284.22,164.56 702.39,164.56 18.4,0 157.51,-94.29 186.59,-109.74 0,-100.11 -25.84,-229.78 -32.61,-329.5 -7.63,-112.89 -20.21,-234.07 -31.56,-341.42 -12.78,-120.61 -12.87,-227.77 -25.36,-347.71l-95.44 -1012.82c-24.31,-230.06 -30.6,-457.07 -59.68,-686.47 -12.87,-102.11 -21.64,-217.29 -30.6,-331.51l-120.51 -1371.69c-26.03,-339.13 -71.22,-685.7 -97.34,-1021.88l-55.78 -679.32c-9.53,-223.67 -54.54,-456.98 -65.5,-680.56 -14.4,-291.56 -57.97,-729.47 -89.91,-1029.32l-42.24 -506.36c-9.92,-207.37 14.4,-135.96 -349.53,-75.61 -358.96,59.59 -873.62,169.61 -1248.03,244.55l-623.73 122.52c-2073.22,414.55 -4129.86,801.64 -6202.7,1216.09 -211.76,42.33 -412.36,77.51 -623.73,122.61 -122.23,26.03 -94.96,-1.91 -178.58,-64.83 -55.3,-41.66 -175.05,-11.92 -249.51,-1.24l-843.69 78.28c-224.06,28.79 -458.12,46.81 -678.17,68.07 -275.92,26.6 -873.24,88.76 -1149.35,156.65 -48.43,11.92 -96.58,30.6 -144.73,41.86z"/>
   <path class="fil1" d="M4291.18 19651.06c104.5,0 65.12,54.82 120.7,54.82l4104.59 0c27.94,0 50.63,-37.28 76.85,-54.82l-98.11 -680.84c-127.19,-908.52 -246.84,-1843.64 -380.04,-2747.2l-264.86 -1885.78c-8.49,-59.02 -20.88,-120.23 -25.17,-172.19l-3008.25 371.93c-62.16,10.68 -39.19,16.4 -54.54,219.76 -2.48,33.37 -7.91,86.48 -13.35,129.28 -53.49,417.12 -90,958.19 -137.67,1409.45l-70.74 774.09c-41.57,317.78 -59.78,749.3 -100.4,1029.8l-49.86 520.67c-20.78,307.96 -72.84,714.69 -99.16,1031.03z"/>
   <path class="fil1" d="M16341.62 10994.05c0,25.27 7.63,32.89 32.89,32.89l845.12 0 0 -120.7 -878.01 0 0 87.81z"/>
  </g>
 </g>
</svg>
